<?xml version="1.0" encoding="UTF-8" standalone="no"?>
<!-- Created with Inkscape (http://www.inkscape.org/) -->

<svg
   width="206.74757"
   height="103.70584"
   viewBox="0 0 54.701986 27.438838"
   version="1.1"
   id="svg5"
   xml:space="preserve"
   sodipodi:docname="dosha_scaleアウトライン.svg"
   inkscape:version="1.3 (0e150ed6c4, 2023-07-21)"
   inkscape:export-filename="..\..\ZeroQuake\src\img\dosha_scale.svg"
   inkscape:export-xdpi="96"
   inkscape:export-ydpi="96"
   xmlns:inkscape="http://www.inkscape.org/namespaces/inkscape"
   xmlns:sodipodi="http://sodipodi.sourceforge.net/DTD/sodipodi-0.dtd"
   xmlns="http://www.w3.org/2000/svg"
   xmlns:svg="http://www.w3.org/2000/svg"><sodipodi:namedview
     id="namedview1"
     pagecolor="#505050"
     bordercolor="#ffffff"
     borderopacity="1"
     inkscape:showpageshadow="0"
     inkscape:pageopacity="0"
     inkscape:pagecheckerboard="1"
     inkscape:deskcolor="#d1d1d1"
     showgrid="false"
     inkscape:zoom="4.7054474"
     inkscape:cx="120.0736"
     inkscape:cy="24.758538"
     inkscape:window-width="1920"
     inkscape:window-height="991"
     inkscape:window-x="-9"
     inkscape:window-y="-9"
     inkscape:window-maximized="1"
     inkscape:current-layer="g10951" /><defs
     id="defs2" /><g
     id="g10951"
     transform="translate(-3.441127,-2.4917738)"><g
       id="g10928"
       transform="translate(-21.10463,24.384091)"
       style="stroke:#000000;stroke-width:2e-08;stroke-dasharray:none;stroke-opacity:1;paint-order:stroke fill markers"><path
         d="m 56.189488,3.2055833 h 0.196888 V 2.526555 h 0.235644 v 0.6790283 h 0.351917 V 3.4272752 H 56.62202 v 0.6278687 q 0.148828,-0.05426 0.390674,-0.1581299 l 0.0217,0.2030883 Q 56.882469,4.1714158 56.62202,4.2861375 V 5.5418748 H 56.386376 V 4.3807054 Q 56.09337,4.4923265 55.887181,4.5543382 l -0.07286,-0.2309937 q 0.246497,-0.069763 0.523999,-0.1658813 l 0.04806,-0.015503 v -0.714685 h -0.234095 q -0.05271,0.2821533 -0.137976,0.5146973 L 55.814317,3.8086473 Q 55.958495,3.4086717 56.014305,2.796306 l 0.215491,0.027905 q -0.01705,0.2030883 -0.04031,0.381372 z M 57.699474,2.9141282 V 2.526555 h 0.241845 v 0.3875732 h 0.714685 v 0.2092896 h -0.714685 v 0.4325317 h 0.89917 v 0.2123902 h -0.469738 v 0.4154785 h 0.396875 v 0.2123901 h -0.396875 v 0.8852173 q 0,0.164331 -0.09922,0.2185913 -0.06821,0.038757 -0.224793,0.038757 -0.193786,0 -0.334863,-0.018603 l -0.04806,-0.2294434 q 0.230994,0.026355 0.362768,0.026355 0.06821,0 0.08682,-0.027905 0.0155,-0.021704 0.0155,-0.068213 V 4.3962083 H 56.924327 V 4.1838182 h 1.204578 V 3.7683397 H 56.851463 V 3.5559495 h 0.848011 V 3.1234178 H 57.018895 V 2.9141282 Z M 57.514989,5.1387986 Q 57.324303,4.8070359 57.153771,4.6054978 l 0.193786,-0.127124 q 0.193787,0.2232422 0.373621,0.523999 z m 2.308386,-1.4665771 q 0,0.2123901 -0.01395,0.3999756 h 0.785999 q -0.0186,0.8991699 -0.08992,1.190625 -0.03566,0.1457275 -0.128674,0.1999877 -0.07596,0.044959 -0.224793,0.044959 -0.175183,0 -0.393774,-0.024805 l -0.03566,-0.2449463 q 0.244946,0.041858 0.382922,0.041858 0.108521,0 0.142627,-0.049609 0.09612,-0.1395264 0.10542,-0.920874 0,-0.015503 0,-0.031006 h -0.562756 q -0.03721,0.3023072 -0.09302,0.4805908 -0.144177,0.4480347 -0.5333,0.7611939 L 58.986217,5.3434373 q 0.395325,-0.2992065 0.508496,-0.7658447 0.08062,-0.3348633 0.09302,-0.9053711 H 59.195506 V 2.6598802 h 1.365808 V 3.6722215 Z M 59.434251,2.8691697 v 0.5968628 h 0.888318 V 2.8691697 Z m 1.494483,-0.072864 h 0.251147 v 1.9301147 h -0.251147 z m 0.675928,-0.1875855 h 0.254248 v 2.6013916 q 0,0.1596802 -0.08992,0.2263428 -0.07752,0.058911 -0.249597,0.058911 -0.20929,0 -0.454236,-0.021704 l -0.04496,-0.2511475 q 0.279053,0.037207 0.471289,0.037207 0.08682,0 0.10387,-0.043408 0.0093,-0.026355 0.0093,-0.077515 z m 2.747119,0.8418091 Q 64.212254,3.320305 64.106834,3.1544236 64.026219,3.2629442 63.951805,3.3342576 L 63.809178,3.1714769 q 0.234094,-0.2402954 0.356568,-0.6588745 l 0.227893,0.044958 q -0.04186,0.1333252 -0.08682,0.2387451 h 0.832508 v 0.190686 h -0.234095 q -0.06821,0.2526978 -0.240295,0.4511353 0.241846,0.1472778 0.53175,0.2247924 L 65.063365,3.8536058 Q 64.736253,3.7311326 64.509911,3.5792039 64.282018,3.7512864 63.945604,3.8257005 h 0.733289 V 3.9807298 H 62.691417 V 3.8257005 h 0.564307 L 63.221617,3.7016771 H 62.49763 V 3.3032518 q -0.08837,0.091467 -0.190686,0.1627807 L 62.167418,3.3048021 q 0.230994,-0.153479 0.358118,-0.3782715 l 0.09302,0.013953 V 2.859868 H 62.173619 V 2.6877855 h 0.444934 V 2.526555 h 0.221692 v 0.1612305 h 0.375171 V 2.526555 h 0.226343 v 0.1612305 h 0.42478 V 2.859868 h -0.42478 V 2.9621873 H 63.215416 V 2.859868 h -0.375171 v 0.1023193 h -0.08837 l -0.0124,0.020154 q -0.0155,0.029456 -0.02636,0.049609 h 1.080554 q -0.03566,0.4480347 -0.08682,0.6263184 -0.04031,0.1348754 -0.167432,0.1674316 h 0.337964 l -0.102309,-0.15968 q 0.37362,-0.071314 0.576709,-0.215491 z M 64.497508,3.3187547 Q 64.609129,3.1854295 64.675792,2.986992 h -0.460437 q 0.09922,0.1813843 0.282153,0.3317627 z m -1.37976,0.2402954 V 3.4412278 H 62.713121 V 3.5590501 Z M 62.505382,3.2955003 h 0.824756 v 0.37052 q 0.03566,0.00155 0.06201,0.00155 0.06356,0 0.08372,-0.041858 0.04961,-0.1023193 0.07751,-0.4325317 h -0.958081 q -0.01085,0.013953 -0.0279,0.034106 -0.0124,0.015503 -0.06201,0.068213 z m 2.351794,1.6603638 v 0.587561 H 64.602928 V 5.431804 h -1.838647 v 0.1116211 h -0.254248 v -0.587561 z m -2.092895,0.1550292 v 0.1627808 h 1.838647 V 5.1108933 Z M 62.173619,4.1016526 h 3.01687 v 0.168982 h -3.01687 z m 0.472839,0.296106 h 2.071192 v 0.1519287 h -2.071192 z m 0,0.2759521 h 2.071192 v 0.1488282 h -2.071192 z m 4.697388,-0.00465 Q 67.236876,4.4225633 67.173314,4.1357591 67.102,3.8225999 67.053941,3.3358079 H 65.396678 V 3.1234178 h 1.64021 Q 67.016734,2.7994066 67.008983,2.526555 h 0.248046 q 0.0093,0.254248 0.02325,0.4929932 l 0.0062,0.1038696 h 1.030945 v 0.2123901 h -1.013892 q 0.05581,0.6681763 0.215491,1.0821045 0.226343,-0.3782715 0.398425,-0.8216553 l 0.215491,0.1178223 q -0.244946,0.5860107 -0.503845,0.9549805 0.15813,0.3085083 0.311609,0.471289 0.06666,0.071313 0.09612,0.071313 0.06356,0 0.113171,-0.5100464 l 0.215491,0.1457275 q -0.03411,0.3519165 -0.09302,0.5038453 -0.07286,0.1798339 -0.193786,0.1798339 -0.09612,0 -0.218592,-0.1116211 -0.235638,-0.2154902 -0.40307,-0.5224482 -0.305407,0.359668 -0.694531,0.6325195 L 66.593504,5.352739 q 0.415479,-0.2651 0.750342,-0.6836783 z M 65.802855,4.1047532 V 3.5357957 h 0.232544 v 0.5689575 h 0.403076 V 3.5357957 h 0.227893 v 0.5689575 h 0.375171 V 4.3202439 H 66.666368 V 5.1837571 H 66.438475 V 4.3202439 h -0.403076 q 0.0016,0.3131592 -0.06046,0.5317505 -0.08372,0.2914551 -0.341064,0.5441528 L 65.457139,5.2287156 q 0.255799,-0.2387451 0.31626,-0.5565552 0.02946,-0.153479 0.02946,-0.3519165 H 65.40908 V 4.1047532 Z M 67.835289,3.0753587 Q 67.657005,2.8133592 67.478721,2.6412767 l 0.187586,-0.1085205 q 0.201538,0.1813843 0.365869,0.4185791 z m 1.178223,-0.1209228 v 2.1239013 h 2.409155 v 0.2325439 h -2.409155 v 0.232544 h -0.26045 V 2.7296434 h 2.587439 v 0.2247925 z m 1.063501,1.0821044 -0.04806,-0.038757 Q 69.683238,3.7063279 69.328221,3.4567308 L 69.48015,3.2815477 q 0.390674,0.2682007 0.748791,0.5643066 0.241846,-0.3426147 0.42323,-0.7534424 l 0.230994,0.1100708 Q 70.669224,3.66447 70.421178,4.0086351 70.692479,4.2380784 71.098656,4.6318528 L 70.921922,4.82874 Q 70.566905,4.4690721 70.266148,4.2024217 l -0.0217,0.024805 Q 69.890977,4.6303025 69.37783,4.9233079 L 69.213499,4.7295213 q 0.503846,-0.2744019 0.863514,-0.692981 z m 4.018359,0.3348633 q 0.164331,-0.3007568 0.299207,-0.7208862 l 0.217041,0.094568 q -0.213941,0.5922119 -0.444934,0.9394775 0.0078,0.024805 0.0217,0.072864 0.06511,0.2294433 0.15968,0.3767211 0.02635,0.040308 0.04496,0.040308 0.06511,0 0.134876,-0.4945435 l 0.196887,0.1364258 q -0.102319,0.6976318 -0.297656,0.6976318 -0.07597,0 -0.168982,-0.1085205 -0.15658,-0.1782837 -0.257349,-0.4557861 -0.0031,-0.012402 -0.0078,-0.024805 Q 73.72015,5.2690235 73.29382,5.546526 L 73.127989,5.368242 Q 73.631835,5.0566331 73.910887,4.6628587 73.776012,4.1295579 73.746556,3.3141038 h -1.11001 v 0.2092896 h -0.327111 v 1.1441162 q 0.15813,-0.060461 0.355017,-0.1565796 l 0.02945,0.2216919 Q 72.242772,4.971367 71.774584,5.1232957 L 71.683116,4.8861009 Q 71.869151,4.8302903 72.07069,4.7589768 V 3.5233934 H 71.721874 V 3.2986009 H 72.07069 V 2.5436082 h 0.238745 v 0.7549927 h 0.32091 V 3.1017137 h 1.106909 Q 73.726402,2.833513 73.721752,2.526555 h 0.235644 q 0.0047,0.4015259 0.01085,0.5751587 h 0.722437 V 3.3141038 H 73.97755 q 0.02481,0.5922119 0.117822,1.0572998 z M 73.619432,3.6257127 V 4.5140306 H 72.768321 V 3.6257127 Z m -0.63562,0.1968872 v 0.4945435 h 0.420129 V 3.8225999 Z M 72.568334,4.9264085 Q 73.200853,4.8101365 73.71245,4.638054 l 0.0155,0.1968872 q -0.503843,0.1891357 -1.0728,0.3147095 z M 74.385277,3.0722581 Q 74.272106,2.8490159 74.124828,2.6474779 l 0.176733,-0.099219 q 0.15813,0.1968872 0.274402,0.4139282 z"
         id="text2529-3"
         style="font-size:3.175px;line-height:1.1;font-family:'BIZ UDPGothic';-inkscape-font-specification:'BIZ UDPGothic';text-align:center;text-anchor:middle;fill:#ffffff;stroke-width:2e-08;stroke-linecap:square;stroke-miterlimit:18.3;stroke-dasharray:none"
         aria-label="特別警戒区域" /><path
         d="m 34.42651,3.4505296 q -0.139526,-0.1302246 -0.244946,-0.296106 -0.08062,0.1085206 -0.15503,0.179834 L 33.883907,3.1714769 q 0.234095,-0.2402954 0.356568,-0.6588745 l 0.227893,0.044958 q -0.04186,0.1333252 -0.08682,0.2387451 h 0.832508 v 0.190686 h -0.234094 q -0.06821,0.2526978 -0.240296,0.4511353 0.241846,0.1472778 0.531751,0.2247924 L 35.138094,3.8536058 Q 34.810983,3.7311326 34.58464,3.5792039 34.356747,3.7512864 34.020333,3.8257005 h 0.733289 V 3.9807298 H 32.766146 V 3.8257005 h 0.564307 L 33.296346,3.7016771 H 32.57236 V 3.3032518 q -0.08837,0.091467 -0.190686,0.1627807 L 32.242147,3.3048021 q 0.230994,-0.153479 0.358118,-0.3782715 l 0.09302,0.013953 V 2.859868 H 32.248348 V 2.6877855 h 0.444934 V 2.526555 h 0.221692 v 0.1612305 h 0.375171 V 2.526555 h 0.226343 v 0.1612305 h 0.42478 V 2.859868 h -0.42478 V 2.9621873 H 33.290145 V 2.859868 h -0.375171 v 0.1023193 h -0.08837 l -0.0124,0.020154 q -0.0155,0.029456 -0.02636,0.049609 h 1.080554 q -0.03566,0.4480347 -0.08682,0.6263184 -0.04031,0.1348754 -0.167432,0.1674316 h 0.337974 l -0.102319,-0.15968 Q 34.223422,3.5947068 34.42651,3.4505296 Z M 34.572237,3.3187547 Q 34.683859,3.1854295 34.750521,2.986992 h -0.460437 q 0.09922,0.1813843 0.282153,0.3317627 z m -1.37976,0.2402954 V 3.4412278 H 32.78785 V 3.5590501 Z M 32.580111,3.2955003 h 0.824756 v 0.37052 q 0.03566,0.00155 0.06201,0.00155 0.06356,0 0.08371,-0.041858 0.04961,-0.1023193 0.07752,-0.4325317 h -0.958081 q -0.01085,0.013953 -0.02791,0.034106 -0.0124,0.015503 -0.06201,0.068213 z m 2.351794,1.6603638 v 0.587561 H 34.677657 V 5.431804 H 32.83901 V 5.5434251 H 32.584762 V 4.9558641 Z M 32.83901,5.1108933 v 0.1627808 h 1.838647 V 5.1108933 Z M 32.248348,4.1016526 h 3.01687 v 0.168982 h -3.01687 z m 0.47284,0.296106 h 2.071191 v 0.1519287 h -2.071191 z m 0,0.2759521 h 2.071191 v 0.1488282 h -2.071191 z m 4.697387,-0.00465 Q 37.311605,4.4225633 37.248043,4.1357591 37.17673,3.8225999 37.128671,3.3358079 H 35.471407 V 3.1234178 h 1.64021 Q 37.091463,2.7994066 37.083712,2.526555 h 0.248047 q 0.0093,0.254248 0.02325,0.4929932 l 0.0062,0.1038696 h 1.030945 v 0.2123901 h -1.013891 q 0.05581,0.6681763 0.21549,1.0821045 0.226343,-0.3782715 0.398426,-0.8216553 l 0.21549,0.1178223 q -0.244946,0.5860107 -0.503845,0.9549805 0.15813,0.3085083 0.311609,0.471289 0.06666,0.071313 0.09612,0.071313 0.06356,0 0.113172,-0.5100464 l 0.21549,0.1457275 q -0.03411,0.3519165 -0.09302,0.5038453 -0.07286,0.1798339 -0.193787,0.1798339 -0.09612,0 -0.218591,-0.1116211 -0.235645,-0.2154907 -0.403076,-0.5224487 -0.305408,0.359668 -0.694532,0.6325195 L 36.668234,5.352739 q 0.415478,-0.2651 0.750341,-0.6836783 z M 35.877584,4.1047532 V 3.5357957 h 0.232544 v 0.5689575 h 0.403076 V 3.5357957 h 0.227893 v 0.5689575 h 0.375171 V 4.3202439 H 36.741097 V 5.1837571 H 36.513204 V 4.3202439 h -0.403076 q 0.0015,0.3131592 -0.06046,0.5317505 -0.08372,0.2914551 -0.341065,0.5441528 L 35.531869,5.2287156 q 0.255798,-0.2387451 0.31626,-0.5565552 0.02945,-0.153479 0.02945,-0.3519165 H 35.48381 V 4.1047532 Z M 37.910018,3.0753587 Q 37.731734,2.8133592 37.553451,2.6412767 l 0.187585,-0.1085205 q 0.201538,0.1813843 0.365869,0.4185791 z m 1.178223,-0.1209228 v 2.1239013 h 2.409155 v 0.2325439 h -2.409155 v 0.232544 H 38.827792 V 2.7296434 h 2.587439 v 0.2247925 z m 1.063501,1.0821044 -0.04806,-0.038757 Q 39.757967,3.7063279 39.40295,3.4567308 l 0.151929,-0.1751831 q 0.390674,0.2682007 0.748791,0.5643066 0.241846,-0.3426147 0.42323,-0.7534424 l 0.230994,0.1100708 q -0.21394,0.4619873 -0.461987,0.8061524 0.271301,0.2294433 0.677478,0.6232177 L 40.996651,4.82874 Q 40.641634,4.4690721 40.340878,4.2024217 l -0.0217,0.024805 Q 39.965707,4.6303025 39.45256,4.9233079 L 39.288229,4.7295213 q 0.503845,-0.2744019 0.863513,-0.692981 z m 4.018359,0.3348633 q 0.164331,-0.3007568 0.299206,-0.7208862 l 0.217041,0.094568 q -0.21394,0.5922119 -0.444934,0.9394775 0.0078,0.024805 0.0217,0.072864 0.06511,0.2294433 0.159681,0.3767211 0.02636,0.040308 0.04496,0.040308 0.06511,0 0.134876,-0.4945435 l 0.196887,0.1364258 q -0.10232,0.6976318 -0.297656,0.6976318 -0.07596,0 -0.168982,-0.1085205 -0.15658,-0.1782837 -0.257349,-0.4557861 -0.0031,-0.012402 -0.0078,-0.024805 -0.272852,0.344165 -0.699183,0.6216675 L 43.202718,5.368242 Q 43.706563,5.0566331 43.985616,4.6628587 43.85074,4.1295579 43.821285,3.3141038 h -1.11001 V 3.5233934 H 42.384163 V 4.6675096 Q 42.542293,4.6070481 42.73918,4.51093 l 0.02946,0.2216919 Q 42.317501,4.971367 41.849312,5.1232957 L 41.757845,4.8861009 Q 41.94388,4.8302903 42.145418,4.7589768 V 3.5233934 H 41.796602 V 3.2986009 h 0.348816 V 2.5436082 h 0.238745 v 0.7549927 h 0.320911 V 3.1017137 h 1.106909 Q 43.801131,2.833513 43.79648,2.526555 h 0.235645 q 0.0047,0.4015259 0.01085,0.5751587 h 0.722436 v 0.2123901 h -0.713134 q 0.0248,0.5922119 0.117822,1.0572998 z M 43.694161,3.6257127 V 4.5140306 H 42.84305 V 3.6257127 Z m -0.63562,0.1968872 V 4.3171434 H 43.47867 V 3.8225999 Z m -0.415479,1.1038086 q 0.63252,-0.116272 1.144116,-0.2883545 l 0.0155,0.1968872 Q 43.298836,5.0240769 42.729879,5.1496507 Z M 44.460006,3.0722581 Q 44.346834,2.8490159 44.199556,2.6474779 l 0.176734,-0.099219 q 0.15813,0.1968872 0.274402,0.4139282 z"
         id="text2529-3-6"
         style="font-size:3.175px;line-height:1.1;font-family:'BIZ UDPGothic';-inkscape-font-specification:'BIZ UDPGothic';text-align:center;text-anchor:middle;fill:#ffffff;stroke-width:2e-08;stroke-linecap:square;stroke-miterlimit:18.3;stroke-dasharray:none"
         aria-label="警戒区域" /></g><g
       id="g10921"
       transform="translate(0,5.291668)"
       style="stroke:#000000;stroke-width:2e-08;stroke-dasharray:none;stroke-opacity:1;paint-order:stroke fill markers"><path
         d="m 7.8863148,-1.059364 v 1.80971825 q 0,0.17945832 0.1059453,0.22053914 0.1145938,0.043243 0.728644,0.043243 0.5945908,0 0.7697249,-0.0410809 0.1232424,-0.0302701 0.1578368,-0.1427018 0.054054,-0.17729617 0.056216,-0.54918571 L 10.037653,0.40441049 Q 10.007382,0.99035273 9.8819778,1.1481896 9.782519,1.2779185 9.5598177,1.3017021 9.2203604,1.3362965 8.6409046,1.3362965 8.0895567,1.3362965 7.8992877,1.29954 7.6614513,1.2519727 7.5965869,1.0833251 7.5619925,0.99035273 7.5619925,0.83900234 V -0.94909445 L 7.0971306,-0.79125761 7.0128068,-1.1004448 7.5619925,-1.2842275 v -1.1762087 h 0.3243223 v 1.0659392 l 0.568645,-0.1924313 v -1.1870195 h 0.3243223 v 1.0789121 l 0.7978328,-0.2681064 0.1945934,0.1059453 v 1.59350341 q 0,0.15567469 -0.073513,0.23567419 -0.086486,0.09297238 -0.3027008,0.09297238 -0.175134,0 -0.3416194,-0.02378363 l -0.056216,-0.30918723 q 0.1643233,0.0302701 0.3070251,0.0302701 0.1081074,0 0.131891,-0.0475673 0.017297,-0.0324322 0.017297,-0.10162098 V -1.5955768 l -0.6745903,0.2291877 v 1.762151 H 8.4549598 V -1.2561195 Z M 6.4376753,-1.6928735 v -1.0529663 h 0.3416195 v 1.0529663 h 0.4778348 v 0.3178358 H 6.7792948 V 0.17306061 Q 7.0063204,0.09522326 7.2982104,-0.02369491 l 0.034594,0.30486294 Q 6.6711873,0.58603097 5.9144354,0.81738085 L 5.7911929,0.48008569 Q 6.0917316,0.39792405 6.4376753,0.28765448 V -1.3750377 H 5.8495709 v -0.3178358 z m 6.0864477,-0.9448589 h 0.350268 v 0.6248609 h 1.271344 v 0.3048629 h -1.271344 v 0.98810189 q 0.0627,0.19675551 0.0627,0.4194568 0,0.73945478 -0.302701,1.09188498 -0.337295,0.39567313 -1.070264,0.55783433 l -0.18162,-0.2745929 q 0.585942,-0.11459385 0.879994,-0.36756522 0.244323,-0.21189055 0.319998,-0.57729364 -0.233512,0.28972789 -0.572969,0.28972789 -0.35243,0 -0.572969,-0.22053914 -0.227026,-0.22486344 -0.227026,-0.6464824 0,-0.26378211 0.14054,-0.49729415 0.05622,-0.0908102 0.134053,-0.16216114 0.24216,-0.2227013 0.572969,-0.2227013 0.259458,0 0.467024,0.1491883 v -0.5275643 h -2.159986 v -0.3048629 h 2.159986 z m 0.0086,2.16647276 v -0.0713509 q 0,-0.16216114 -0.08432,-0.28756575 -0.14054,-0.20756621 -0.387024,-0.20756621 -0.147027,0 -0.272431,0.0929723 -0.233512,0.17297188 -0.233512,0.495132 0,0.24432278 0.110269,0.39567318 0.129729,0.18162047 0.384863,0.18162047 0.263782,0 0.402159,-0.25080923 0.08,-0.14918824 0.08,-0.3481059 z m 2.09296,0.7091847 q 0.376213,-0.46269977 0.739454,-1.11350647 0.265945,-0.47783479 0.434592,-0.89729159 0.11027,-0.2745929 0.34162,-0.2745929 0.170809,0 0.304863,0.1621612 0.03676,0.047567 0.168647,0.2724307 0.214053,0.3610788 0.611888,0.87999439 0.601078,0.77837346 1.256209,1.36431569 L 18.24733,0.94062332 q -0.711347,-0.6508067 -1.392423,-1.5740441 -0.319998,-0.43459182 -0.559997,-0.84107572 -0.101621,-0.1751341 -0.15135,-0.1751341 -0.06054,0 -0.136215,0.203242 -0.181621,0.48432126 -0.579456,1.15458728 -0.259458,0.43459185 -0.518916,0.77621131 z M 17.63328,-1.3123354 q -0.172972,-0.3502681 -0.447565,-0.6875632 l 0.257296,-0.1189182 q 0.270269,0.3243223 0.445403,0.6724282 z m 0.503781,-0.2897279 Q 17.942467,-1.9847636 17.69382,-2.2831401 l 0.248647,-0.1189181 q 0.272431,0.3135115 0.443241,0.6637796 z m 2.302688,0.82161643 q -0.201079,0.3567545 -0.408646,0.54918571 -0.18162,0.16648543 -0.315673,0.16648543 -0.399998,0 -0.399998,-1.19350597 0,-0.5945908 0.138378,-1.2864783 l 0.343781,0.049729 q -0.131891,0.7351305 -0.131891,1.2453975 0,0.76107627 0.116756,0.76107627 0.03892,0 0.131891,-0.0972967 0.183783,-0.19459336 0.317836,-0.46918617 z m -0.18162,1.73404308 q 0.655131,-0.18162048 0.99675,-0.5794558 0.397836,-0.46269977 0.397836,-1.38377501 0,-0.6616174 -0.136216,-1.5480983 l 0.358917,-0.034594 q 0.144864,0.8670215 0.144864,1.59998988 0,1.12215506 -0.525402,1.64539499 Q 21.12515,1.022785 20.448398,1.2519727 Z m 3.519977,-2.02377101 q 0.166485,0 0.287565,0.12972894 0.108108,0.11243172 0.108108,0.27026856 0,0.11243172 -0.0627,0.21189055 -0.118919,0.18594477 -0.339458,0.18594477 -0.09513,0 -0.18162,-0.0454051 -0.214053,-0.11459387 -0.214053,-0.3567545 0,-0.20107981 0.168648,-0.32216012 0.103783,-0.0735131 0.233512,-0.0735131 z m 3.669166,-0.7351305 h 1.223776 v 1.64755719 h -3.169709 v -0.28324145 h 2.806468 V -0.86044637 H 25.659176 V -1.1350392 h 2.648631 v -0.3913489 h -2.635659 v -0.1513504 q -0.239998,0.1837826 -0.469186,0.3113494 l -0.220539,-0.2486471 q 0.758914,-0.3870246 1.262695,-1.1156686 l 0.220539,0.1556747 h 1.355667 l 0.207566,0.1729719 q -0.313511,0.3632409 -0.581618,0.5967529 z m -0.417294,0 q 0.300538,-0.2616199 0.479997,-0.4864834 h -1.191344 q -0.20108,0.2421607 -0.486484,0.4864834 z M 25.04945,1.096298 q 0.287565,-0.41297035 0.410808,-0.99242615 l 0.328647,0.0972967 Q 25.650527,0.88440746 25.349988,1.3038643 Z m 1.182695,-0.98377755 h 0.345944 v 0.71783329 q 0,0.13189106 0.08,0.16216114 0.08865,0.0324322 0.460538,0.0324322 0.484321,0 0.609726,-0.023784 0.118918,-0.0216215 0.149188,-0.1621612 0.03027,-0.15351254 0.03243,-0.36756524 l 0.345944,0.12324246 q -0.01514,0.33513301 -0.06919,0.48215918 -0.07135,0.1881069 -0.311349,0.2313499 -0.164323,0.032432 -0.648645,0.032432 -0.694049,0 -0.836751,-0.062702 -0.157837,-0.069189 -0.157837,-0.31999804 z M 28.900236,1.1719732 Q 28.599698,0.55792304 28.286186,0.16224986 l 0.287566,-0.18162047 q 0.397835,0.50161845 0.633509,0.99242615 z M 27.328354,0.75900284 Q 27.053761,0.30495166 26.820249,0.06495318 l 0.265945,-0.18594477 q 0.289727,0.30053864 0.527564,0.66810388 z M 32.54778,-1.8355753 h 0.830265 V 0.52549081 H 31.741299 V -1.8355753 h 0.512429 q 0.05189,-0.1729719 0.103783,-0.4475648 h -0.864859 v -0.2962143 h 2.110257 v 0.2962143 h -0.916751 q -0.05189,0.2097284 -0.138378,0.4475648 z m 0.516754,0.2702685 H 32.05481 v 0.4302676 h 1.009724 z m -1.009724,0.69188754 v 0.41080821 h 1.009724 v -0.41080821 z m 0,0.67242818 v 0.45188903 h 1.009724 V -0.20099108 Z M 30.191038,-1.7512515 v 3.1848447 h -0.324322 v -2.42376847 q -0.164323,0.31999797 -0.354592,0.59459083 l -0.14054,-0.34161946 q 0.495132,-0.7999949 0.789184,-2.0626897 l 0.32216,0.08 q -0.144864,0.5621586 -0.29189,0.9686421 z m 0.659456,0.4389161 q 0.265944,-0.1772962 0.531888,-0.4345918 l 0.198918,0.2572956 q -0.319998,0.276755 -0.730806,0.51026707 v 1.31674842 q 0,0.073513 0.02162,0.0972967 0.03027,0.0324322 0.147026,0.0324322 0.179459,0 0.205404,-0.10810742 0.02811,-0.11026958 0.03676,-0.58810439 l 0.285403,0.12540461 q -0.0173,0.61188802 -0.09946,0.74161693 -0.07351,0.12108031 -0.259458,0.1427018 -0.08865,0.0108107 -0.229188,0.0108107 -0.276755,0 -0.348106,-0.0778373 -0.06054,-0.0648645 -0.06054,-0.22918774 V -2.4107068 h 0.300539 z m 0.469186,2.5232273 q 0.4627,-0.22918776 0.780535,-0.63783383 l 0.259458,0.17297188 Q 32.037513,1.1611625 31.555354,1.4465661 Z m 2.054041,0.218377 Q 33.07102,1.0487307 32.727239,0.74602995 l 0.231349,-0.18162047 q 0.387025,0.30053864 0.672429,0.62918522 z m 1.044317,-3.02917 h 1.232425 v 0.2875657 h -0.499457 v 0.59242869 h 0.828103 v 0.28756574 H 35.151006 V 1.1006223 q 0,0.1945934 -0.09946,0.2637821 -0.07784,0.054054 -0.265945,0.054054 -0.244322,0 -0.410808,-0.021621 l -0.05405,-0.335133 q 0.23135,0.038919 0.378376,0.038919 0.08865,0 0.105946,-0.038919 0.01297,-0.028108 0.01297,-0.0799995 v -1.41404511 h -0.916751 v -0.28756574 h 0.916751 V -1.3123354 h -0.52324 v -0.1470261 q -0.142702,0.1556747 -0.304863,0.3113494 L 33.81696,-1.4442265 q 0.594591,-0.5210777 0.970805,-1.3297213 h 0.358916 l 0.03892,0.041081 q 0.525402,0.5643207 0.828103,1.0140476 l -0.237837,0.233512 q -0.324322,-0.4864834 -0.767562,-0.9967504 -0.23135,0.4432404 -0.590267,0.8821565 z m 3.100521,1.35566705 0.527564,-0.10810742 0.02595,0.31134938 -0.55351,0.11459387 V 1.4335932 H 37.181264 V 0.14279053 L 36.02019,0.38278901 35.976947,0.07360178 37.181264,-0.1750453 v -2.5989025 h 0.337295 z m -3.671328,1.1329658 q 0.216215,-0.41297036 0.337295,-1.06810135 l 0.296214,0.09297239 q -0.116756,0.713509 -0.371889,1.19134381 z M 35.69803,0.81305656 Q 35.55749,0.28765448 35.384519,-0.09072151 l 0.257295,-0.13621535 q 0.196756,0.37188954 0.335133,0.87999443 z m 1.098371,-2.28539096 q -0.33297,-0.4216189 -0.668103,-0.6962118 l 0.233512,-0.2248634 q 0.345943,0.29189 0.665941,0.6767524 z m -0.05622,1.00972335 Q 36.396404,-0.86477066 36.082892,-1.1393635 l 0.205405,-0.2313499 q 0.378376,0.3091872 0.672428,0.66377958 z M 40.344487,-1.059364 v 1.80971825 q 0,0.17945832 0.105945,0.22053914 0.114594,0.043243 0.728644,0.043243 0.594591,0 0.769725,-0.0410809 0.123242,-0.0302701 0.157837,-0.1427018 0.05405,-0.17729617 0.05622,-0.54918571 l 0.33297,0.12324246 q -0.03027,0.58594224 -0.155674,0.74377906 -0.09946,0.1297289 -0.32216,0.1535125 -0.339458,0.034594 -0.918914,0.034594 -0.551347,0 -0.741616,-0.036757 Q 40.119627,1.251972 40.054763,1.0833241 40.020173,0.9903517 40.020173,0.83900139 V -0.9490954 l -0.464862,0.15783684 -0.08432,-0.30918714 0.549185,-0.1837828 v -1.1762087 h 0.324323 v 1.0659392 l 0.568645,-0.1924312 v -1.1870195 h 0.324322 v 1.0789121 l 0.797833,-0.2681064 0.194593,0.1059453 v 1.59350336 q 0,0.15567469 -0.07351,0.23567419 -0.08649,0.09297238 -0.302701,0.09297238 -0.175134,0 -0.341619,-0.02378363 l -0.05622,-0.30918723 q 0.164323,0.0302701 0.307025,0.0302701 0.108107,0 0.131891,-0.0475673 0.0173,-0.0324322 0.0173,-0.10162098 V -1.5955768 l -0.67459,0.2291877 v 1.762151 h -0.324322 v -1.6518814 z m -1.44864,-0.6335095 v -1.0529663 h 0.34162 v 1.0529663 h 0.477834 v 0.3178358 h -0.477834 v 1.54809831 q 0.227025,-0.07783735 0.518915,-0.19675552 l 0.03459,0.30486294 q -0.661618,0.30486294 -1.41837,0.53621282 L 38.249365,0.48008569 q 0.300538,-0.0821616 0.646482,-0.19243121 V -1.3750377 h -0.588104 v -0.3178358 z m 6.164287,2.51025435 Q 45.576887,0.6854898 45.90121,0.40873479 46.335801,0.0390074 46.335801,-0.6745016 q 0,-0.4691862 -0.224863,-0.8259407 -0.307025,-0.4929699 -1.011885,-0.596753 -0.149189,1.42485585 -0.60324,2.30485028 -0.192431,0.37405169 -0.376214,0.53837497 -0.196755,0.17513403 -0.410808,0.17513403 -0.287566,0 -0.518916,-0.2810793 -0.125404,-0.14918825 -0.205404,-0.37621384 -0.112431,-0.31134938 -0.112431,-0.67242817 0,-0.62053657 0.348106,-1.12864147 0.343781,-0.5059428 0.884318,-0.7199955 0.367566,-0.1448639 0.791347,-0.1448639 0.657293,0 1.130803,0.3286465 0.410808,0.2875658 0.581618,0.7654006 0.103783,0.2897279 0.103783,0.62269876 0,1.4140451 -1.465936,1.80755614 z M 44.772568,-2.1058439 q -0.50378,0.03027 -0.858373,0.3005386 -0.538375,0.4086461 -0.655131,1.05729065 -0.03027,0.16648544 -0.03027,0.32864657 0,0.51026704 0.222701,0.79783279 0.129729,0.16648543 0.268107,0.16648543 0.157837,0 0.315674,-0.23567418 0.257295,-0.38702458 0.462699,-1.04431771 0.172972,-0.55351005 0.274593,-1.37080215 z m 4.618351,0.021622 h 1.171884 v -0.5145913 h 0.337295 v 0.7935084 h -3.316735 v -0.7935084 h 0.341619 v 0.5145913 h 1.124317 v -0.6897254 h 0.34162 z m -0.28108,0.6075637 v 2.5059301 q 0,0.1643233 -0.05622,0.2508092 -0.04757,0.077837 -0.144864,0.1102696 -0.0627,0.019459 -0.22054,0.019459 -0.27243,0 -0.471348,-0.025946 l -0.07135,-0.3091873 q 0.205404,0.038919 0.488646,0.038919 0.108107,0 0.131891,-0.023784 0.02595,-0.025946 0.02595,-0.10378317 V 0.27251944 h -0.98594 q -0.01297,0.31783582 -0.08649,0.57296934 -0.08649,0.30486292 -0.313512,0.60540162 l -0.26162,-0.2270256 q 0.239999,-0.31783586 0.304863,-0.69404969 0.04108,-0.24216063 0.04108,-0.67459033 V -1.4766587 Z m -1.295127,0.2745929 v 0.4605376 h 0.977292 v -0.4605376 z m 0,0.71783327 v 0.35891665 q 0,0.09297238 -0.0022,0.13621535 h 0.979454 v -0.495132 z M 51.161718,-1.4766587 V 1.03792 q 0,0.1989177 -0.09513,0.2832414 -0.08649,0.08 -0.302701,0.08 -0.298376,0 -0.488646,-0.025946 l -0.07567,-0.3091873 q 0.259458,0.038919 0.501619,0.038919 0.09513,0 0.116756,-0.036756 0.01946,-0.032432 0.01946,-0.0994588 V 0.27251944 h -1.059453 q -0.01297,0.34161946 -0.09081,0.60540157 -0.08,0.27891719 -0.289728,0.56432079 L 49.144434,1.2281891 Q 49.375784,0.8908939 49.432,0.50819362 49.46443,0.27684373 49.46443,-0.1750453 v -1.3016134 z m -1.372964,0.2745929 v 0.4605376 h 1.048642 v -0.4605376 z m 0,0.71783327 v 0.27459286 q -0.0022,0.19026906 -0.0022,0.22053914 h 1.050804 v -0.495132 z m 4.771859,0.34161946 q 0.108108,0.2810793 0.287566,0.52323993 0.285404,-0.19243121 0.568645,-0.48432126 l 0.244323,0.19675551 q -0.332971,0.30053864 -0.63351,0.495132 0.276755,0.28324145 0.765401,0.55350999 L 55.56385,1.3989988 Q 54.564938,0.81738085 54.257913,-0.12315374 54.100076,0.05630459 53.862239,0.24657365 V 0.97954199 Q 54.301156,0.87359671 54.59737,0.78278648 L 54.61683,1.0617036 Q 53.894672,1.3060264 53.135758,1.4422418 L 53.021164,1.1503517 q 0.289728,-0.051891 0.52324,-0.099459 V 0.4671128 Q 53.235216,0.65305757 52.869813,0.80008366 L 52.67522,0.56224733 q 0.713509,-0.25729567 1.225938,-0.7048604 h -1.141614 v -0.27026856 h 1.331883 V -0.71558242 H 53.051434 V -1.7339544 h 1.039993 V -2.0517902 H 52.865489 V -2.326383 h 1.225938 v -0.4475648 h 0.332971 v 0.4475648 h 1.267019 v 0.2745928 h -1.267019 v 0.3178358 h 1.072426 v 1.01837198 h -1.072426 v 0.30270079 h 1.342694 v 0.27026856 z m -0.79567,-1.33404563 h -0.408646 v 0.49945632 h 0.408646 z m 0.283241,0 v 0.49945632 h 0.417295 V -1.4766587 Z m 0.704861,0 v 0.49945632 h 0.438916 V -1.4766587 Z m -2.670254,-0.2075662 v -1.0681014 h 0.332971 v 1.0681014 h 0.44324 v 0.3135115 h -0.44324 v 1.53728756 q 0.227026,-0.09513453 0.460538,-0.2140527 l 0.03459,0.30270079 Q 52.340087,0.56440948 51.661172,0.80008366 L 51.533605,0.48008569 q 0.237837,-0.0691888 0.549186,-0.18162047 V -1.3707134 h -0.490808 v -0.3135115 z"
         id="text2529"
         style="font-size:4.42808px;font-family:'BIZ UDPGothic';-inkscape-font-specification:'BIZ UDPGothic';fill:#ffffff;stroke-width:2e-08;stroke-linecap:square;stroke-miterlimit:18.3;stroke-dasharray:none"
         aria-label="地すべり・急傾斜地の崩壊" /></g><circle
       style="fill:#f7a802;fill-opacity:1;stroke:#ffffff;stroke-width:1.27368;stroke-linecap:square;stroke-miterlimit:18.3;stroke-dasharray:none;stroke-opacity:1;paint-order:stroke fill markers"
       id="path4"
       cx="17.416204"
       cy="17.348793"
       r="6.6844358" /><circle
       style="fill:#db0707;fill-opacity:1;stroke:#ffffff;stroke-width:1.27368;stroke-linecap:square;stroke-miterlimit:18.3;stroke-dasharray:none;stroke-opacity:1;paint-order:stroke fill markers"
       id="path4-3"
       cx="44.164925"
       cy="17.348793"
       r="6.6844358" /></g><path
     style="fill:#88888b;fill-opacity:1;stroke:#88888b;stroke-width:0.318333;stroke-linecap:round;stroke-miterlimit:18.3;stroke-dasharray:none;stroke-opacity:1;paint-order:stroke fill markers"
     d="M 0.15916656,5.4648232 H 54.54281"
     id="path8" /></svg>
