<?xml version="1.0" encoding="UTF-8" standalone="no"?>
<!-- Created with Inkscape (http://www.inkscape.org/) -->

<svg
   width="4.2333331mm"
   height="4.2333336mm"
   viewBox="0 0 4.2333331 4.2333336"
   version="1.1"
   id="svg5"
   sodipodi:docname="epicenter_EQDetect.svg"
   inkscape:version="1.3 (0e150ed6c4, 2023-07-21)"
   xmlns:inkscape="http://www.inkscape.org/namespaces/inkscape"
   xmlns:sodipodi="http://sodipodi.sourceforge.net/DTD/sodipodi-0.dtd"
   xmlns="http://www.w3.org/2000/svg"
   xmlns:svg="http://www.w3.org/2000/svg">
  <sodipodi:namedview
     id="namedview1"
     pagecolor="#505050"
     bordercolor="#ffffff"
     borderopacity="1"
     inkscape:showpageshadow="0"
     inkscape:pageopacity="0"
     inkscape:pagecheckerboard="1"
     inkscape:deskcolor="#d1d1d1"
     inkscape:document-units="mm"
     inkscape:zoom="24.843749"
     inkscape:cx="13.081762"
     inkscape:cy="7.8490571"
     inkscape:window-width="1651"
     inkscape:window-height="1020"
     inkscape:window-x="64"
     inkscape:window-y="0"
     inkscape:window-maximized="0"
     inkscape:current-layer="svg5" />
  <defs
     id="defs2" />
  <g
     id="layer1">
    <path
       id="rect240"
       style="fill:#278ed2;fill-opacity:1;stroke:#ffffff;stroke-width:0.565585;stroke-linecap:round;stroke-linejoin:round;stroke-dasharray:none;stroke-opacity:1;paint-order:stroke fill markers"
       d="m 0.65042613,0.28285089 c -0.0587222,0 -0.11740411,0.0225049 -0.16239977,0.0673852 L 0.34782671,0.48997974 c -0.0899912,0.0897751 -0.0899912,0.23436113 0,0.32413635 L 1.6517738,2.1149171 0.34782625,3.415721 c -0.0899917,0.089775 -0.0899917,0.2343608 -2.4e-7,0.324136 l 0.14020104,0.1397431 c 0.0899913,0.089776 0.23492692,0.089776 0.32491822,0 l 1.30394753,-1.300803 1.3039474,1.300803 c 0.089993,0.089773 0.2348093,0.089776 0.3248003,0 L 3.8858402,3.7398549 c 0.089991,-0.089773 0.089991,-0.2343591 0,-0.3241339 L 2.5818933,2.1149171 3.8858407,0.81411376 c 0.089992,-0.0897729 0.089992,-0.23435882 3e-7,-0.32413403 L 3.7456401,0.35023618 c -0.089992,-0.0897752 -0.234807,-0.0897752 -0.3247985,0 L 2.1168932,1.6510396 0.81294462,0.35023618 C 0.76794896,0.30534859 0.709148,0.28285089 0.65042613,0.28285089 Z" />
  </g>
</svg>
