<?xml version="1.0" encoding="UTF-8" standalone="no"?>
<!-- Created with Inkscape (http://www.inkscape.org/) -->

<svg
   width="46.860611"
   height="300.18481"
   viewBox="0 0 12.398536 79.423898"
   version="1.1"
   id="svg5"
   xml:space="preserve"
   inkscape:version="1.3 (0e150ed6c4, 2023-07-21)"
   sodipodi:docname="震度めもりフォント埋め込み.svg"
   inkscape:export-filename="..\..\ZeroQuake\src\img\a.svg"
   inkscape:export-xdpi="25.4"
   inkscape:export-ydpi="25.4"
   xmlns:inkscape="http://www.inkscape.org/namespaces/inkscape"
   xmlns:sodipodi="http://sodipodi.sourceforge.net/DTD/sodipodi-0.dtd"
   xmlns:xlink="http://www.w3.org/1999/xlink"
   xmlns="http://www.w3.org/2000/svg"
   xmlns:svg="http://www.w3.org/2000/svg"><sodipodi:namedview
     id="namedview7"
     pagecolor="#505050"
     bordercolor="#ffffff"
     borderopacity="1"
     inkscape:showpageshadow="0"
     inkscape:pageopacity="0"
     inkscape:pagecheckerboard="1"
     inkscape:deskcolor="#505050"
     inkscape:document-units="mm"
     showgrid="false"
     inkscape:zoom="8"
     inkscape:cx="-2.5"
     inkscape:cy="172.4375"
     inkscape:window-width="1920"
     inkscape:window-height="991"
     inkscape:window-x="-9"
     inkscape:window-y="-9"
     inkscape:window-maximized="1"
     inkscape:current-layer="svg5" /><defs
     id="defs2"><linearGradient
       inkscape:collect="always"
       xlink:href="#linearGradient923"
       id="linearGradient945"
       x1="3.175"
       y1="4.4979167"
       x2="3.4395833"
       y2="78.845848"
       gradientUnits="userSpaceOnUse"
       gradientTransform="translate(-8.343e-5,0.06614576)" /><linearGradient
       inkscape:collect="always"
       id="linearGradient923"><stop
         style="stop-color:#c20000;stop-opacity:1;"
         offset="0"
         id="stop133" /><stop
         style="stop-color:#c30000;"
         offset="4%"
         id="stop135" /><stop
         style="stop-color:#cc0000;"
         offset="5%"
         id="stop137" /><stop
         style="stop-color:#d20000;"
         offset="6%"
         id="stop139" /><stop
         style="stop-color:#db0402;"
         offset="7%"
         id="stop141" /><stop
         style="stop-color:#db0402;"
         offset="8%"
         id="stop143" /><stop
         style="stop-color:#e30600;"
         offset="9%"
         id="stop145" /><stop
         style="stop-color:#ec0b00;"
         offset="10%"
         id="stop147" /><stop
         style="stop-color:#f51000;"
         offset="11%"
         id="stop149" /><stop
         style="stop-color:#fd1400;"
         offset="13%"
         id="stop151" /><stop
         style="stop-color:#fe1605;"
         offset="14%"
         id="stop153" /><stop
         style="stop-color:#ff2300;"
         offset="15%"
         id="stop155" /><stop
         style="stop-color:#ff2b00;"
         offset="16%"
         id="stop157" /><stop
         style="stop-color:#ff2b00;"
         offset="17%"
         id="stop159" /><stop
         style="stop-color:#ff3600;"
         offset="18%"
         id="stop161" /><stop
         style="stop-color:#ff3c00;"
         offset="19%"
         id="stop163" /><stop
         style="stop-color:#ff4300;"
         offset="20%"
         id="stop165" /><stop
         style="stop-color:#ff4b00;"
         offset="21%"
         id="stop167" /><stop
         style="stop-color:#ff5200;"
         offset="22%"
         id="stop169" /><stop
         style="stop-color:#ff5900;"
         offset="23%"
         id="stop171" /><stop
         style="stop-color:#ff5d00;"
         offset="24%"
         id="stop173" /><stop
         style="stop-color:#ff6400;"
         offset="25%"
         id="stop175" /><stop
         style="stop-color:#ff6b00;"
         offset="26%"
         id="stop177" /><stop
         style="stop-color:#ff7300;"
         offset="27%"
         id="stop179" /><stop
         style="stop-color:#ff8500;"
         offset="29%"
         id="stop181" /><stop
         style="stop-color:#ff9100;"
         offset="30%"
         id="stop183" /><stop
         style="stop-color:#ff9a00;"
         offset="31%"
         id="stop185" /><stop
         style="stop-color:#ffa500;"
         offset="32%"
         id="stop187" /><stop
         style="stop-color:#ffae00;"
         offset="33%"
         id="stop189" /><stop
         style="stop-color:#ffb100;"
         offset="34%"
         id="stop191" /><stop
         style="stop-color:#ffc100;"
         offset="36%"
         id="stop193" /><stop
         style="stop-color:#ffc500;"
         offset="37%"
         id="stop195" /><stop
         style="stop-color:#ffcc00;"
         offset="38%"
         id="stop197" /><stop
         style="stop-color:#ffd300;"
         offset="39%"
         id="stop199" /><stop
         style="stop-color:#ffec00;"
         offset="43%"
         id="stop201" /><stop
         style="stop-color:#fff100;"
         offset="44%"
         id="stop203" /><stop
         style="stop-color:#fff600;"
         offset="45%"
         id="stop205" /><stop
         style="stop-color:#fff900;"
         offset="46%"
         id="stop207" /><stop
         style="stop-color:#fefe00;"
         offset="54%"
         id="stop209" /><stop
         style="stop-color:#f3ff03;"
         offset="55%"
         id="stop211" /><stop
         style="stop-color:#e5ff04;"
         offset="56%"
         id="stop213" /><stop
         style="stop-color:#dbff06;"
         offset="57%"
         id="stop215" /><stop
         style="stop-color:#d3ff08;"
         offset="58%"
         id="stop217" /><stop
         style="stop-color:#ccff09;"
         offset="59%"
         id="stop219" /><stop
         style="stop-color:#c2ff0a;"
         offset="60%"
         id="stop221" /><stop
         style="stop-color:#b2ff0e;"
         offset="61%"
         id="stop223" /><stop
         style="stop-color:#a6ff10;"
         offset="62%"
         id="stop225" /><stop
         style="stop-color:#9dff11;"
         offset="63%"
         id="stop227" /><stop
         style="stop-color:#84ff16;"
         offset="64%"
         id="stop229" /><stop
         style="stop-color:#6bff1b;"
         offset="66%"
         id="stop231" /><stop
         style="stop-color:#65ff1d;"
         offset="67%"
         id="stop233" /><stop
         style="stop-color:#5bfe22;"
         offset="68%"
         id="stop235" /><stop
         style="stop-color:#4dfb2d;"
         offset="69%"
         id="stop237" /><stop
         style="stop-color:#44fa35;"
         offset="70%"
         id="stop239" /><stop
         style="stop-color:#3af93c;"
         offset="71%"
         id="stop241" /><stop
         style="stop-color:#33f843;"
         offset="72%"
         id="stop243" /><stop
         style="stop-color:#1ff454;"
         offset="73%"
         id="stop245" /><stop
         style="stop-color:#1ff454;"
         offset="74%"
         id="stop247" /><stop
         style="stop-color:#19ee5d;"
         offset="75%"
         id="stop249" /><stop
         style="stop-color:#16ea63;"
         offset="76%"
         id="stop251" /><stop
         style="stop-color:#11e56b;"
         offset="77%"
         id="stop253" /><stop
         style="stop-color:#0cde75;"
         offset="78%"
         id="stop255" /><stop
         style="stop-color:#04d583;"
         offset="79%"
         id="stop257" /><stop
         style="stop-color:#01cf8b;"
         offset="80%"
         id="stop259" /><stop
         style="stop-color:#01cb8f;"
         offset="81%"
         id="stop261" /><stop
         style="stop-color:#00bc9d;"
         offset="82%"
         id="stop263" /><stop
         style="stop-color:#00abad;"
         offset="83%"
         id="stop265" /><stop
         style="stop-color:#00a2b5;"
         offset="84%"
         id="stop267" /><stop
         style="stop-color:#0093c2;"
         offset="85%"
         id="stop269" /><stop
         style="stop-color:#008aca;"
         offset="86%"
         id="stop271" /><stop
         style="stop-color:#0075db;"
         offset="87%"
         id="stop273" /><stop
         style="stop-color:#006bdc;"
         offset="88%"
         id="stop275" /><stop
         style="stop-color:#0062de;"
         offset="89%"
         id="stop277" /><stop
         style="stop-color:#0054e1;"
         offset="90%"
         id="stop279" /><stop
         style="stop-color:#0047e3;"
         offset="91%"
         id="stop281" /><stop
         style="stop-color:#003de4;"
         offset="92%"
         id="stop283" /><stop
         style="stop-color:#0035e6;"
         offset="93%"
         id="stop285" /><stop
         style="stop-color:#002be6;"
         offset="94%"
         id="stop287" /><stop
         style="stop-color:#0024e3;"
         offset="95%"
         id="stop289" /><stop
         style="stop-color:#001add;"
         offset="96%"
         id="stop291" /><stop
         style="stop-color:#0013d9;"
         offset="97%"
         id="stop293" /><stop
         style="stop-color:#000ad3;"
         offset="98%"
         id="stop295" /><stop
         style="stop-color:#000ad3;"
         offset="99%"
         id="stop297" /><stop
         style="stop-color:#0001ce;"
         offset="100%"
         id="stop299" /></linearGradient></defs><rect
     style="fill:url(#linearGradient945);fill-opacity:1;stroke:#ffffff;stroke-width:0.529167;stroke-linecap:square;stroke-linejoin:round;stroke-dasharray:none;stroke-opacity:1;paint-order:stroke fill markers"
     id="rect355"
     width="0.79374999"
     height="74.083336"
     x="0.26449996"
     y="4.5640626"
     rx="0.39687499"
     inkscape:label="ベース"
     ry="0.39687499" /><g
     id="g2"
     inkscape:label="引き出し線"
     transform="translate(-0.69473696)"><rect
       style="fill:#ffffff;fill-opacity:1;stroke:none;stroke-width:0.327718;stroke-linecap:square;stroke-dasharray:none;stroke-opacity:1;paint-order:stroke fill markers"
       id="rect954"
       width="1.5875"
       height="0.26458332"
       x="1.8520833"
       y="4.7624998"
       rx="0.13229166"
       ry="0.26458332" /><rect
       style="fill:#ffffff;fill-opacity:1;stroke:none;stroke-width:0.299164;stroke-linecap:square;stroke-dasharray:none;stroke-opacity:1;paint-order:stroke fill markers"
       id="rect954-3-1"
       width="1.3229166"
       height="0.26458332"
       x="1.8520833"
       y="11.906252"
       rx="0.13229166"
       ry="0.26458332" /><rect
       style="fill:#ffffff;fill-opacity:1;stroke:none;stroke-width:0.299164;stroke-linecap:square;stroke-dasharray:none;stroke-opacity:1;paint-order:stroke fill markers"
       id="rect954-3-7"
       width="1.3229166"
       height="0.26458332"
       x="1.8520833"
       y="19.314583"
       rx="0.13229166"
       ry="0.26458332" /><rect
       style="fill:#ffffff;fill-opacity:1;stroke:none;stroke-width:0.299164;stroke-linecap:square;stroke-dasharray:none;stroke-opacity:1;paint-order:stroke fill markers"
       id="rect954-3-4-7"
       width="1.3229166"
       height="0.26458332"
       x="1.8520833"
       y="26.72287"
       rx="0.13229166"
       ry="0.26458332" /><rect
       style="fill:#ffffff;fill-opacity:1;stroke:none;stroke-width:0.299164;stroke-linecap:square;stroke-dasharray:none;stroke-opacity:1;paint-order:stroke fill markers"
       id="rect954-3-4-5"
       width="1.3229166"
       height="0.26458332"
       x="1.8520833"
       y="34.131248"
       rx="0.13229166"
       ry="0.26458332" /><rect
       style="fill:#ffffff;fill-opacity:1;stroke:none;stroke-width:0.299164;stroke-linecap:square;stroke-dasharray:none;stroke-opacity:1;paint-order:stroke fill markers"
       id="rect954-3-4-5-3"
       width="1.3229166"
       height="0.26458332"
       x="1.8520833"
       y="48.947918"
       rx="0.13229166"
       ry="0.26458332" /><rect
       style="fill:#ffffff;fill-opacity:1;stroke:none;stroke-width:0.299164;stroke-linecap:square;stroke-dasharray:none;stroke-opacity:1;paint-order:stroke fill markers"
       id="rect954-3-4-5-3-6"
       width="1.3229166"
       height="0.26458332"
       x="1.8520833"
       y="56.356251"
       rx="0.13229166"
       ry="0.26458332" /><rect
       style="fill:#ffffff;fill-opacity:1;stroke:none;stroke-width:0.299164;stroke-linecap:square;stroke-dasharray:none;stroke-opacity:1;paint-order:stroke fill markers"
       id="rect954-3-4-5-3-60"
       width="1.3229166"
       height="0.26458332"
       x="1.8520833"
       y="63.764584"
       rx="0.13229166"
       ry="0.26458332" /><rect
       style="fill:#ffffff;fill-opacity:1;stroke:none;stroke-width:0.299164;stroke-linecap:square;stroke-dasharray:none;stroke-opacity:1;paint-order:stroke fill markers"
       id="rect954-3-4-5-3-60-3-2"
       width="1.3229166"
       height="0.26458332"
       x="1.8520833"
       y="71.172874"
       rx="0.13229166"
       ry="0.26458332" /><rect
       style="fill:#ffffff;fill-opacity:1;stroke:none;stroke-width:0.299164;stroke-linecap:square;stroke-dasharray:none;stroke-opacity:1;paint-order:stroke fill markers"
       id="rect954-3-4-5-3-60-3-2-7"
       width="1.3229166"
       height="0.26458332"
       x="1.8520833"
       y="78.316666"
       rx="0.13229166"
       ry="0.26458332" /><rect
       style="fill:#ffffff;fill-opacity:1;stroke:none;stroke-width:0.299164;stroke-linecap:square;stroke-dasharray:none;stroke-opacity:1;paint-order:stroke fill markers"
       id="rect954-3-4-9"
       width="1.3229166"
       height="0.26458332"
       x="1.8520833"
       y="41.539585"
       rx="0.13229166"
       ry="0.26458332" /></g><g
     id="g3"
     inkscape:label="めもり"
     transform="translate(-0.69473696)"><rect
       style="fill:#000000;fill-opacity:0.365979;stroke:none;stroke-width:0.163531;stroke-linecap:square;stroke-dasharray:none;stroke-opacity:1;paint-order:stroke fill markers"
       id="rect954-7"
       width="0.79374999"
       height="0.13229166"
       x="0.95923686"
       y="4.8286457"
       rx="0.026458332"
       ry="6.8755153e-06" /><rect
       style="fill:#000000;fill-opacity:0.365979;stroke:none;stroke-width:0.163532;stroke-linecap:square;stroke-dasharray:none;stroke-opacity:1;paint-order:stroke fill markers"
       id="rect954-3-1-8"
       width="0.79374999"
       height="0.13229166"
       x="0.95923686"
       y="11.972396"
       rx="0.026458332"
       ry="6.8755153e-06" /><rect
       style="fill:#000000;fill-opacity:0.365979;stroke:none;stroke-width:0.163532;stroke-linecap:square;stroke-dasharray:none;stroke-opacity:1;paint-order:stroke fill markers"
       id="rect954-3-7-5"
       width="0.79374999"
       height="0.13229166"
       x="0.95923686"
       y="19.38073"
       rx="0.026458332"
       ry="6.8755153e-06" /><rect
       style="fill:#000000;fill-opacity:0.365979;stroke:none;stroke-width:0.163532;stroke-linecap:square;stroke-dasharray:none;stroke-opacity:1;paint-order:stroke fill markers"
       id="rect954-3-4-7-4"
       width="0.79374999"
       height="0.13229166"
       x="0.95923686"
       y="26.789015"
       rx="0.026458332"
       ry="6.8755153e-06" /><rect
       style="fill:#000000;fill-opacity:0.365979;stroke:none;stroke-width:0.163532;stroke-linecap:square;stroke-dasharray:none;stroke-opacity:1;paint-order:stroke fill markers"
       id="rect954-3-4-5-0"
       width="0.79374999"
       height="0.13229166"
       x="0.95923686"
       y="34.197395"
       rx="0.026458332"
       ry="6.8755153e-06" /><rect
       style="fill:#000000;fill-opacity:0.365979;stroke:none;stroke-width:0.163532;stroke-linecap:square;stroke-dasharray:none;stroke-opacity:1;paint-order:stroke fill markers"
       id="rect954-3-4-5-3-7"
       width="0.79374999"
       height="0.13229166"
       x="0.95923686"
       y="49.014065"
       rx="0.026458332"
       ry="6.8755153e-06" /><rect
       style="fill:#000000;fill-opacity:0.365979;stroke:none;stroke-width:0.163532;stroke-linecap:square;stroke-dasharray:none;stroke-opacity:1;paint-order:stroke fill markers"
       id="rect954-3-4-5-3-6-6"
       width="0.79374999"
       height="0.13229166"
       x="0.95923686"
       y="56.422398"
       rx="0.026458332"
       ry="6.8755153e-06" /><rect
       style="fill:#000000;fill-opacity:0.365979;stroke:none;stroke-width:0.163532;stroke-linecap:square;stroke-dasharray:none;stroke-opacity:1;paint-order:stroke fill markers"
       id="rect954-3-4-5-3-60-6"
       width="0.79374999"
       height="0.13229166"
       x="0.95923686"
       y="63.83073"
       rx="0.026458332"
       ry="6.8755153e-06" /><rect
       style="fill:#000000;fill-opacity:0.365979;stroke:none;stroke-width:0.163532;stroke-linecap:square;stroke-dasharray:none;stroke-opacity:1;paint-order:stroke fill markers"
       id="rect954-3-4-5-3-60-3-2-3"
       width="0.79374999"
       height="0.13229166"
       x="0.95923686"
       y="71.239021"
       rx="0.026458332"
       ry="6.8755153e-06" /><rect
       style="fill:#000000;fill-opacity:0.365979;stroke:none;stroke-width:0.163532;stroke-linecap:square;stroke-dasharray:none;stroke-opacity:1;paint-order:stroke fill markers"
       id="rect954-3-4-5-3-60-3-2-7-4"
       width="0.79374999"
       height="0.13229166"
       x="0.95923686"
       y="78.382812"
       rx="0.026458332"
       ry="6.8755153e-06" /><rect
       style="fill:#000000;fill-opacity:0.365979;stroke:none;stroke-width:0.163532;stroke-linecap:square;stroke-dasharray:none;stroke-opacity:1;paint-order:stroke fill markers"
       id="rect954-3-4-9-1"
       width="0.79374999"
       height="0.13229166"
       x="0.95923686"
       y="41.605728"
       rx="0.026458332"
       ry="6.8755153e-06" /></g><path
     style="-inkscape-font-specification:'BIZ UDPGothic';fill:#ffffff;stroke-width:0.224931;stroke-linecap:square;paint-order:markers stroke fill"
     d="M 1.0490552,0.00937749 H 1.2715174 V 1.4230314 q 0,0.2848407 -0.112402,0.4114366 -0.1405024,0.1582448 -0.40628614,0.1582448 -0.32315558,0 -0.48824593,-0.3434499 L 0.4015732,1.5144617 q 0.12293962,0.2789799 0.34423094,0.2789799 0.17445718,0 0.25056266,-0.120735 0.0526885,-0.084397 0.0526885,-0.2637414 z m 0.7306127,0 H 2.1121903 L 2.561798,0.93891941 Q 2.6683457,1.1604622 2.7292301,1.3491838 h 0.00936 Q 2.7983105,1.1628066 2.9071998,0.93891941 L 3.3556367,0.00937749 H 3.6881592 V 1.9540308 H 3.4727221 V 0.8885155 q 0,-0.47239015 0.00936,-0.69862167 H 3.4703804 Q 3.3720287,0.45129087 3.2444056,0.719721 L 2.8158732,1.6269914 H 2.6519537 L 2.2234213,0.719721 Q 2.0922858,0.44542994 1.9974467,0.18989383 h -0.011709 q 0.0082,0.22857589 0.00936,0.65525086 V 0.8885155 1.9540308 H 1.7796679 Z M 4.7079726,2.2364438e-8 H 4.9339473 L 5.7031981,1.9540308 H 5.4584897 L 5.2407109,1.3808328 H 4.4012089 L 4.1834301,1.9540308 H 3.9387217 Z M 5.176314,1.1956277 4.9725855,0.65759525 Q 4.8613544,0.37158235 4.8262287,0.22623154 h -0.00936 Q 4.7817363,0.36337706 4.6705053,0.65759525 L 4.4667767,1.1956277 Z M 6.67969,0.00937749 H 7.3892273 V 0.17934418 H 7.1445189 V 1.7840641 H 7.3892273 V 1.9540308 H 6.67969 V 1.7840641 H 6.9243984 V 0.17934418 H 6.67969 Z M 7.9816791,0.53803248 V 0.79239641 Q 8.0893976,0.65173432 8.2299,0.57905892 q 0.1299648,-0.0679867 0.263442,-0.0679867 0.1756281,0 0.3009094,0.0867417 0.1896783,0.13245679 0.1896783,0.46066833 V 1.9540308 H 8.766151 V 1.0854424 q 0,-0.38447635 -0.3009094,-0.38447635 -0.1159146,0 -0.2248039,0.0656424 -0.1639195,0.096119 -0.2517335,0.28718498 V 1.9540308 H 7.7685837 V 0.53803248 Z M 9.7953309,0.10315222 V 0.53803248 H 10.233231 V 0.70565479 H 9.7953309 V 1.5871372 q 0,0.1008078 0.017563,0.1441786 0.030443,0.076192 0.1229396,0.076192 0.1217684,0 0.2447084,-0.084397 l 0.06088,0.1559005 q -0.155724,0.1043244 -0.340718,0.1043244 -0.3184722,0 -0.3184722,-0.3680658 V 0.70565479 H 9.2485424 V 0.53803248 H 9.5822356 V 0.21568188 Z M 10.511893,1.617614 h 0.336035 v 0.3364168 h -0.336035 z"
     id="text1923-2-5"
     inkscape:label="タイトル"
     aria-label="JMA Int." /><g
     id="g1"
     inkscape:label="数字"><path
       style="-inkscape-font-specification:'BIZ UDPGothic';fill:#ffffff;stroke-width:0.216655;stroke-linecap:square;paint-order:markers stroke fill"
       d="M 4.0474741,3.9587768 H 5.3925367 V 4.128038 Q 5.1770107,4.5083116 4.9919518,5.0172237 4.8441303,5.4234507 4.7617565,5.8308061 H 4.5394601 Q 4.6263475,5.3850848 4.823819,4.8953556 5.0269324,4.3909572 5.161213,4.1506062 H 4.2483308 V 4.564732 H 4.0474741 Z"
       id="text1923-2"
       aria-label="7" /><path
       style="-inkscape-font-specification:'BIZ UDPGothic';fill:#ffffff;stroke-width:0.216655;stroke-linecap:square;paint-order:markers stroke fill"
       d="m 4.276541,12.07296 q 0.090273,-0.152335 0.2527634,-0.223425 0.1196113,-0.05191 0.2437362,-0.05191 0.2290669,0 0.4096122,0.159106 0.1895726,0.168133 0.1895726,0.431052 0,0.259534 -0.1636192,0.447978 -0.1726465,0.196343 -0.4626474,0.196343 -0.3351372,0 -0.522453,-0.249378 -0.091401,-0.12074 -0.1308954,-0.247122 -0.045136,-0.145564 -0.045136,-0.341907 0,-0.179417 0.074475,-0.370118 0.2211681,-0.570975 0.8869289,-0.778602 l 0.083502,0.161362 Q 4.6963088,11.351907 4.5089931,11.567433 4.3047512,11.80327 4.2675137,12.07296 Z m 0.4558769,-0.101557 q -0.1816737,0 -0.3182111,0.143308 -0.1150977,0.121868 -0.1150977,0.274203 0,0.139923 0.084631,0.265176 0.1320237,0.195215 0.3520633,0.195215 0.190701,0 0.3069271,-0.133152 0.1117124,-0.12751 0.1117124,-0.313698 0,-0.203113 -0.1162261,-0.313697 Q 4.91522,11.971403 4.7324179,11.971403 Z"
       id="text1923-0"
       aria-label="6" /><path
       style="-inkscape-font-specification:'BIZ UDPGothic';fill:#ffffff;stroke-width:0.216655;stroke-linecap:square;paint-order:markers stroke fill"
       d="M 4.3386035,18.516502 H 5.39028 v 0.185059 H 4.5214057 l -0.074475,0.65222 h 0.00903 q 0.1749033,-0.151207 0.4287951,-0.151207 0.2426078,0 0.4107406,0.139923 0.1985999,0.165876 0.1985999,0.457005 0,0.187316 -0.093658,0.335137 -0.110584,0.17716 -0.320468,0.249378 -0.116226,0.03949 -0.2561486,0.03949 -0.3870441,0 -0.6262666,-0.22004 l 0.1150976,-0.145565 q 0.093658,0.0835 0.221168,0.128639 0.1455647,0.05191 0.290001,0.05191 0.2008566,0 0.3294952,-0.135409 0.116226,-0.122997 0.116226,-0.303542 0,-0.181674 -0.1071988,-0.295643 -0.1184828,-0.12751 -0.3261099,-0.12751 -0.1489499,0 -0.2787169,0.07222 -0.086887,0.04852 -0.135409,0.119611 l -0.1918294,-0.02821 z"
       id="text1923-0-3-5"
       aria-label="5" /><path
       style="-inkscape-font-specification:'BIZ UDPGothic';fill:#ffffff;stroke-width:0.216655;stroke-linecap:square;paint-order:markers stroke fill"
       d="M 4.8824961,25.906171 H 5.136388 v 1.250276 h 0.3577054 v 0.178289 H 5.136388 v 0.454748 H 4.9332745 V 27.334736 H 3.980898 v -0.176032 z m 0.050778,1.250276 v -0.665761 q 0,-0.191829 0.011284,-0.399456 h -0.00903 q -0.0993,0.196343 -0.1692612,0.293386 l -0.5495348,0.771831 z"
       id="text1923-0-0"
       aria-label="4" /><path
       style="-inkscape-font-specification:'BIZ UDPGothic';fill:#ffffff;stroke-width:0.216655;stroke-linecap:square;paint-order:markers stroke fill"
       d="m 4.3995375,34.142236 h 0.1455647 q 0.215526,0 0.3464213,-0.06883 0.029339,-0.0158 0.055292,-0.03724 0.1139693,-0.09591 0.1139693,-0.238095 0,-0.148949 -0.1196113,-0.23358 -0.1094556,-0.0756 -0.2809736,-0.0756 -0.2572771,0 -0.4728031,0.203113 L 4.055373,33.55095 q 0.090273,-0.08802 0.2053703,-0.144436 0.1940863,-0.09591 0.4096122,-0.09591 0.221168,0 0.3825304,0.08914 0.2369658,0.130896 0.2369658,0.380274 0,0.189572 -0.1387943,0.317083 -0.1071987,0.100428 -0.3091838,0.126381 v 0.009 q 0.2392225,0.02482 0.3712463,0.141051 0.1433078,0.12751 0.1433078,0.340779 0,0.268561 -0.2121407,0.414126 -0.1828021,0.125253 -0.4807019,0.125253 -0.4129974,0 -0.6702745,-0.264048 l 0.1342806,-0.142179 q 0.073346,0.07673 0.1636192,0.125253 0.1749032,0.09591 0.3723747,0.09591 0.2222964,0 0.3486781,-0.101557 0.1128408,-0.0914 0.1128408,-0.256148 0,-0.392686 -0.5845154,-0.392686 H 4.3995375 Z"
       id="text1923-0-0-9-2"
       aria-label="3" /><path
       style="-inkscape-font-specification:'BIZ UDPGothic';fill:#ffffff;stroke-width:0.216655;stroke-linecap:square;paint-order:markers stroke fill"
       d="m 4.0339333,42.590401 v -0.187316 q 0.1060704,-0.373503 0.577745,-0.692842 l 0.064319,-0.04401 q 0.2087555,-0.141051 0.2787168,-0.211013 0.1263817,-0.124125 0.1263817,-0.270818 0,-0.137665 -0.1038135,-0.224553 -0.110584,-0.09366 -0.2900009,-0.09366 -0.2764601,0 -0.4897292,0.242608 L 4.0519878,40.982419 q 0.2392226,-0.299028 0.6364223,-0.299028 0.2200396,0 0.3791451,0.09366 0.2448646,0.143308 0.2448646,0.416383 0,0.194086 -0.1545919,0.345293 -0.074475,0.07222 -0.3024134,0.230195 l -0.038366,0.02708 -0.080117,0.05529 q -0.4265383,0.292257 -0.4829587,0.542764 h 1.0832719 v 0.196343 z"
       id="text1923-0-0-1"
       aria-label="2" /><path
       style="-inkscape-font-specification:'BIZ UDPGothic';fill:#ffffff;stroke-width:0.216655;stroke-linecap:square;paint-order:markers stroke fill"
       d="m 4.5462306,50.03315 v -1.671173 q -0.1884442,0.07786 -0.4524917,0.136538 l -0.046265,-0.165876 q 0.3723747,-0.09253 0.5563052,-0.205371 h 0.1500783 v 1.905882 z"
       id="text1923-0-0-5-3"
       aria-label="1" /><path
       style="-inkscape-font-specification:'BIZ UDPGothic';fill:#ffffff;stroke-width:0.216655;stroke-linecap:square;paint-order:markers stroke fill"
       d="m 4.73806,55.513596 q 0.32611,0 0.5122973,0.274203 0.1749033,0.257277 0.1749033,0.697356 0,0.406227 -0.1478215,0.658991 -0.1861873,0.319339 -0.5416359,0.319339 -0.3340089,0 -0.5201962,-0.286615 -0.1681328,-0.258406 -0.1681328,-0.691715 0,-0.45362 0.1861873,-0.714282 0.185059,-0.257277 0.5043985,-0.257277 z m -0.00339,0.180545 q -0.2222964,0 -0.3452929,0.233581 -0.1105841,0.208755 -0.1105841,0.55969 0,0.323853 0.094786,0.526967 0.1241249,0.264047 0.3633475,0.264047 0.2177828,0 0.3407793,-0.224553 0.116226,-0.209884 0.116226,-0.565332 0,-0.374632 -0.1252533,-0.586773 Q 4.9468104,55.694141 4.73467,55.694141 Z"
       id="text1923-0-0-6"
       aria-label="0" /><path
       style="-inkscape-font-specification:'BIZ UDPGothic';fill:#ffffff;stroke-width:0.216655;stroke-linecap:square;paint-order:markers stroke fill"
       d="M 4.0271628,63.875437 H 4.798994 v 0.173775 H 4.0271628 Z m 1.647476,0.954634 v -1.671173 q -0.1884442,0.07786 -0.4524917,0.136538 L 5.1758824,63.12956 q 0.3723747,-0.09253 0.5563052,-0.205371 h 0.1500783 v 1.905882 z"
       id="text1923-0-0-88-1"
       aria-label="-1" /><path
       style="-inkscape-font-specification:'BIZ UDPGothic';fill:#ffffff;stroke-width:0.216655;stroke-linecap:square;paint-order:markers stroke fill"
       d="M 4.0271628,71.283724 H 4.798994 v 0.173775 H 4.0271628 Z m 1.1645173,0.954634 v -0.187316 q 0.1060704,-0.373503 0.577745,-0.692843 l 0.064319,-0.04401 q 0.2087555,-0.141051 0.2787168,-0.211012 0.1263817,-0.124125 0.1263817,-0.270818 0,-0.137666 -0.1038135,-0.224553 -0.110584,-0.09366 -0.2900009,-0.09366 -0.2764601,0 -0.4897292,0.242608 L 5.2097346,70.630376 q 0.2392226,-0.299028 0.6364223,-0.299028 0.2200396,0 0.3791451,0.09366 0.2448646,0.143308 0.2448646,0.416382 0,0.194087 -0.1545919,0.345293 -0.074475,0.07222 -0.3024134,0.230196 l -0.038366,0.02708 -0.080117,0.05529 Q 5.46814,71.791507 5.4117196,72.042014 h 1.0832719 v 0.196343 z"
       id="text1923-0-0-7-7"
       aria-label="-2" /><path
       style="-inkscape-font-specification:'BIZ UDPGothic';fill:#ffffff;stroke-width:0.216655;stroke-linecap:square;paint-order:markers stroke fill"
       d="M 4.0271628,78.427516 H 4.798994 v 0.173775 H 4.0271628 Z m 1.5007829,-0.119612 h 0.1455647 q 0.215526,0 0.3464213,-0.06883 0.029339,-0.0158 0.055292,-0.03724 0.1139693,-0.09592 0.1139693,-0.238094 0,-0.14895 -0.1196113,-0.233581 -0.1094556,-0.0756 -0.2809737,-0.0756 -0.257277,0 -0.472803,0.203114 L 5.1837812,77.716618 q 0.090273,-0.08801 0.2053703,-0.144436 0.1940862,-0.09591 0.4096122,-0.09591 0.221168,0 0.3825304,0.08914 0.2369657,0.130895 0.2369657,0.380273 0,0.189573 -0.1387942,0.317083 -0.1071988,0.100428 -0.3091838,0.126382 v 0.009 q 0.2392225,0.02482 0.3712463,0.141051 0.1433078,0.12751 0.1433078,0.340779 0,0.268562 -0.2121407,0.414126 -0.1828022,0.125254 -0.4807019,0.125254 -0.4129974,0 -0.6702745,-0.264048 L 5.2559994,79.01316 q 0.073346,0.07673 0.1636192,0.125253 0.1749032,0.09592 0.3723747,0.09592 0.2222964,0 0.3486781,-0.101557 0.1128408,-0.0914 0.1128408,-0.256149 0,-0.392686 -0.5845154,-0.392686 H 5.5279457 Z"
       id="text1923-0-0-97-8"
       aria-label="-3" /></g></svg>
