<?xml version="1.0" encoding="UTF-8" standalone="no"?>
<!-- Created with Inkscape (http://www.inkscape.org/) -->

<svg
   width="46.860611"
   height="300.18481"
   viewBox="0 0 12.398536 79.423898"
   version="1.1"
   id="svg5"
   xml:space="preserve"
   inkscape:version="1.2 (dc2aedaf03, 2022-05-15)"
   sodipodi:docname="めもりフォント埋め込み.svg"
   inkscape:export-filename="..\..\ZeroQuake\src\img\a.svg"
   inkscape:export-xdpi="25.4"
   inkscape:export-ydpi="25.4"
   xmlns:inkscape="http://www.inkscape.org/namespaces/inkscape"
   xmlns:sodipodi="http://sodipodi.sourceforge.net/DTD/sodipodi-0.dtd"
   xmlns:xlink="http://www.w3.org/1999/xlink"
   xmlns="http://www.w3.org/2000/svg"
   xmlns:svg="http://www.w3.org/2000/svg"><sodipodi:namedview
     id="namedview7"
     pagecolor="#505050"
     bordercolor="#ffffff"
     borderopacity="1"
     inkscape:showpageshadow="0"
     inkscape:pageopacity="0"
     inkscape:pagecheckerboard="1"
     inkscape:deskcolor="#505050"
     inkscape:document-units="mm"
     showgrid="false"
     inkscape:zoom="1"
     inkscape:cx="38"
     inkscape:cy="151"
     inkscape:window-width="1651"
     inkscape:window-height="1020"
     inkscape:window-x="128"
     inkscape:window-y="0"
     inkscape:window-maximized="0"
     inkscape:current-layer="text8351" /><defs
     id="defs2"><linearGradient
       inkscape:collect="always"
       xlink:href="#linearGradient923"
       id="linearGradient945"
       x1="3.175"
       y1="4.4979167"
       x2="3.4395833"
       y2="78.845848"
       gradientUnits="userSpaceOnUse"
       gradientTransform="translate(0.69465353,0.06614576)" /><linearGradient
       inkscape:collect="always"
       id="linearGradient923"><stop
         style="stop-color:#c20000;stop-opacity:1;"
         offset="0"
         id="stop133" /><stop
         style="stop-color:#c30000;"
         offset="4%"
         id="stop135" /><stop
         style="stop-color:#cc0000;"
         offset="5%"
         id="stop137" /><stop
         style="stop-color:#d20000;"
         offset="6%"
         id="stop139" /><stop
         style="stop-color:#db0402;"
         offset="7%"
         id="stop141" /><stop
         style="stop-color:#db0402;"
         offset="8%"
         id="stop143" /><stop
         style="stop-color:#e30600;"
         offset="9%"
         id="stop145" /><stop
         style="stop-color:#ec0b00;"
         offset="10%"
         id="stop147" /><stop
         style="stop-color:#f51000;"
         offset="11%"
         id="stop149" /><stop
         style="stop-color:#fd1400;"
         offset="13%"
         id="stop151" /><stop
         style="stop-color:#fe1605;"
         offset="14%"
         id="stop153" /><stop
         style="stop-color:#ff2300;"
         offset="15%"
         id="stop155" /><stop
         style="stop-color:#ff2b00;"
         offset="16%"
         id="stop157" /><stop
         style="stop-color:#ff2b00;"
         offset="17%"
         id="stop159" /><stop
         style="stop-color:#ff3600;"
         offset="18%"
         id="stop161" /><stop
         style="stop-color:#ff3c00;"
         offset="19%"
         id="stop163" /><stop
         style="stop-color:#ff4300;"
         offset="20%"
         id="stop165" /><stop
         style="stop-color:#ff4b00;"
         offset="21%"
         id="stop167" /><stop
         style="stop-color:#ff5200;"
         offset="22%"
         id="stop169" /><stop
         style="stop-color:#ff5900;"
         offset="23%"
         id="stop171" /><stop
         style="stop-color:#ff5d00;"
         offset="24%"
         id="stop173" /><stop
         style="stop-color:#ff6400;"
         offset="25%"
         id="stop175" /><stop
         style="stop-color:#ff6b00;"
         offset="26%"
         id="stop177" /><stop
         style="stop-color:#ff7300;"
         offset="27%"
         id="stop179" /><stop
         style="stop-color:#ff8500;"
         offset="29%"
         id="stop181" /><stop
         style="stop-color:#ff9100;"
         offset="30%"
         id="stop183" /><stop
         style="stop-color:#ff9a00;"
         offset="31%"
         id="stop185" /><stop
         style="stop-color:#ffa500;"
         offset="32%"
         id="stop187" /><stop
         style="stop-color:#ffae00;"
         offset="33%"
         id="stop189" /><stop
         style="stop-color:#ffb100;"
         offset="34%"
         id="stop191" /><stop
         style="stop-color:#ffc100;"
         offset="36%"
         id="stop193" /><stop
         style="stop-color:#ffc500;"
         offset="37%"
         id="stop195" /><stop
         style="stop-color:#ffcc00;"
         offset="38%"
         id="stop197" /><stop
         style="stop-color:#ffd300;"
         offset="39%"
         id="stop199" /><stop
         style="stop-color:#ffec00;"
         offset="43%"
         id="stop201" /><stop
         style="stop-color:#fff100;"
         offset="44%"
         id="stop203" /><stop
         style="stop-color:#fff600;"
         offset="45%"
         id="stop205" /><stop
         style="stop-color:#fff900;"
         offset="46%"
         id="stop207" /><stop
         style="stop-color:#fefe00;"
         offset="54%"
         id="stop209" /><stop
         style="stop-color:#f3ff03;"
         offset="55%"
         id="stop211" /><stop
         style="stop-color:#e5ff04;"
         offset="56%"
         id="stop213" /><stop
         style="stop-color:#dbff06;"
         offset="57%"
         id="stop215" /><stop
         style="stop-color:#d3ff08;"
         offset="58%"
         id="stop217" /><stop
         style="stop-color:#ccff09;"
         offset="59%"
         id="stop219" /><stop
         style="stop-color:#c2ff0a;"
         offset="60%"
         id="stop221" /><stop
         style="stop-color:#b2ff0e;"
         offset="61%"
         id="stop223" /><stop
         style="stop-color:#a6ff10;"
         offset="62%"
         id="stop225" /><stop
         style="stop-color:#9dff11;"
         offset="63%"
         id="stop227" /><stop
         style="stop-color:#84ff16;"
         offset="64%"
         id="stop229" /><stop
         style="stop-color:#6bff1b;"
         offset="66%"
         id="stop231" /><stop
         style="stop-color:#65ff1d;"
         offset="67%"
         id="stop233" /><stop
         style="stop-color:#5bfe22;"
         offset="68%"
         id="stop235" /><stop
         style="stop-color:#4dfb2d;"
         offset="69%"
         id="stop237" /><stop
         style="stop-color:#44fa35;"
         offset="70%"
         id="stop239" /><stop
         style="stop-color:#3af93c;"
         offset="71%"
         id="stop241" /><stop
         style="stop-color:#33f843;"
         offset="72%"
         id="stop243" /><stop
         style="stop-color:#1ff454;"
         offset="73%"
         id="stop245" /><stop
         style="stop-color:#1ff454;"
         offset="74%"
         id="stop247" /><stop
         style="stop-color:#19ee5d;"
         offset="75%"
         id="stop249" /><stop
         style="stop-color:#16ea63;"
         offset="76%"
         id="stop251" /><stop
         style="stop-color:#11e56b;"
         offset="77%"
         id="stop253" /><stop
         style="stop-color:#0cde75;"
         offset="78%"
         id="stop255" /><stop
         style="stop-color:#04d583;"
         offset="79%"
         id="stop257" /><stop
         style="stop-color:#01cf8b;"
         offset="80%"
         id="stop259" /><stop
         style="stop-color:#01cb8f;"
         offset="81%"
         id="stop261" /><stop
         style="stop-color:#00bc9d;"
         offset="82%"
         id="stop263" /><stop
         style="stop-color:#00abad;"
         offset="83%"
         id="stop265" /><stop
         style="stop-color:#00a2b5;"
         offset="84%"
         id="stop267" /><stop
         style="stop-color:#0093c2;"
         offset="85%"
         id="stop269" /><stop
         style="stop-color:#008aca;"
         offset="86%"
         id="stop271" /><stop
         style="stop-color:#0075db;"
         offset="87%"
         id="stop273" /><stop
         style="stop-color:#006bdc;"
         offset="88%"
         id="stop275" /><stop
         style="stop-color:#0062de;"
         offset="89%"
         id="stop277" /><stop
         style="stop-color:#0054e1;"
         offset="90%"
         id="stop279" /><stop
         style="stop-color:#0047e3;"
         offset="91%"
         id="stop281" /><stop
         style="stop-color:#003de4;"
         offset="92%"
         id="stop283" /><stop
         style="stop-color:#0035e6;"
         offset="93%"
         id="stop285" /><stop
         style="stop-color:#002be6;"
         offset="94%"
         id="stop287" /><stop
         style="stop-color:#0024e3;"
         offset="95%"
         id="stop289" /><stop
         style="stop-color:#001add;"
         offset="96%"
         id="stop291" /><stop
         style="stop-color:#0013d9;"
         offset="97%"
         id="stop293" /><stop
         style="stop-color:#000ad3;"
         offset="98%"
         id="stop295" /><stop
         style="stop-color:#000ad3;"
         offset="99%"
         id="stop297" /><stop
         style="stop-color:#0001ce;"
         offset="100%"
         id="stop299" /></linearGradient></defs><g
     inkscape:groupmode="layer"
     id="layer2"
     inkscape:label="Layer 2"
     transform="translate(-0.69473697)"><rect
       style="fill:url(#linearGradient945);fill-opacity:1;stroke:#ffffff;stroke-width:0.529;stroke-linecap:square;stroke-linejoin:round;stroke-dasharray:none;stroke-opacity:1;paint-order:markers stroke fill"
       id="rect355"
       width="0.79374999"
       height="74.083336"
       x="0.95923692"
       y="4.5640626"
       rx="0.39687499"
       inkscape:label="ベース"
       ry="0.39687499" /><g
       id="g3509"
       inkscape:label="引き出し線"
       transform="translate(-1.5875)"><rect
         style="fill:#ffffff;fill-opacity:1;stroke:none;stroke-width:0.327718;stroke-linecap:square;stroke-dasharray:none;stroke-opacity:1;paint-order:stroke fill markers"
         id="rect954"
         width="1.5875"
         height="0.26458332"
         x="3.4395833"
         y="4.7624998"
         rx="0.13229166"
         ry="0.26458332" /><rect
         style="fill:#ffffff;fill-opacity:1;stroke:none;stroke-width:0.299164;stroke-linecap:square;stroke-dasharray:none;stroke-opacity:1;paint-order:stroke fill markers"
         id="rect954-3"
         width="1.3229166"
         height="0.26458332"
         x="3.4395833"
         y="9.5249996"
         rx="0.13229166"
         ry="0.26458332" /><rect
         style="fill:#ffffff;fill-opacity:1;stroke:none;stroke-width:0.299164;stroke-linecap:square;stroke-dasharray:none;stroke-opacity:1;paint-order:stroke fill markers"
         id="rect954-3-1"
         width="1.3229166"
         height="0.26458332"
         x="3.4395833"
         y="14.552083"
         rx="0.13229166"
         ry="0.26458332" /><rect
         style="fill:#ffffff;fill-opacity:1;stroke:none;stroke-width:0.299164;stroke-linecap:square;stroke-dasharray:none;stroke-opacity:1;paint-order:stroke fill markers"
         id="rect954-3-7"
         width="1.3229166"
         height="0.26458332"
         x="3.4395833"
         y="19.314583"
         rx="0.13229166"
         ry="0.26458332" /><rect
         style="fill:#ffffff;fill-opacity:1;stroke:none;stroke-width:0.299164;stroke-linecap:square;stroke-dasharray:none;stroke-opacity:1;paint-order:stroke fill markers"
         id="rect954-3-4"
         width="1.3229166"
         height="0.26458332"
         x="3.4395833"
         y="24.341667"
         rx="0.13229166"
         ry="0.26458332" /><rect
         style="fill:#ffffff;fill-opacity:1;stroke:none;stroke-width:0.299164;stroke-linecap:square;stroke-dasharray:none;stroke-opacity:1;paint-order:stroke fill markers"
         id="rect954-3-4-7"
         width="1.3229166"
         height="0.26458332"
         x="3.4395833"
         y="29.104166"
         rx="0.13229166"
         ry="0.26458332" /><rect
         style="fill:#ffffff;fill-opacity:1;stroke:none;stroke-width:0.299164;stroke-linecap:square;stroke-dasharray:none;stroke-opacity:1;paint-order:stroke fill markers"
         id="rect954-3-4-5"
         width="1.3229166"
         height="0.26458332"
         x="3.4395833"
         y="34.131248"
         rx="0.13229166"
         ry="0.26458332" /><rect
         style="fill:#ffffff;fill-opacity:1;stroke:none;stroke-width:0.299164;stroke-linecap:square;stroke-dasharray:none;stroke-opacity:1;paint-order:stroke fill markers"
         id="rect954-3-4-0"
         width="1.3229166"
         height="0.26458332"
         x="3.4395833"
         y="39.158333"
         rx="0.13229166"
         ry="0.26458332" /><rect
         style="fill:#ffffff;fill-opacity:1;stroke:none;stroke-width:0.299164;stroke-linecap:square;stroke-dasharray:none;stroke-opacity:1;paint-order:stroke fill markers"
         id="rect954-3-4-5-3"
         width="1.3229166"
         height="0.26458332"
         x="3.4395833"
         y="48.947918"
         rx="0.13229166"
         ry="0.26458332" /><rect
         style="fill:#ffffff;fill-opacity:1;stroke:none;stroke-width:0.299164;stroke-linecap:square;stroke-dasharray:none;stroke-opacity:1;paint-order:stroke fill markers"
         id="rect954-3-4-5-3-9"
         width="1.3229166"
         height="0.26458332"
         x="3.4395833"
         y="53.710415"
         rx="0.13229166"
         ry="0.26458332" /><rect
         style="fill:#ffffff;fill-opacity:1;stroke:none;stroke-width:0.299164;stroke-linecap:square;stroke-dasharray:none;stroke-opacity:1;paint-order:stroke fill markers"
         id="rect954-3-4-5-3-6"
         width="1.3229166"
         height="0.26458332"
         x="3.4395833"
         y="58.737499"
         rx="0.13229166"
         ry="0.26458332" /><rect
         style="fill:#ffffff;fill-opacity:1;stroke:none;stroke-width:0.299164;stroke-linecap:square;stroke-dasharray:none;stroke-opacity:1;paint-order:stroke fill markers"
         id="rect954-3-4-5-3-60"
         width="1.3229166"
         height="0.26458332"
         x="3.4395833"
         y="63.764584"
         rx="0.13229166"
         ry="0.26458332" /><rect
         style="fill:#ffffff;fill-opacity:1;stroke:none;stroke-width:0.299164;stroke-linecap:square;stroke-dasharray:none;stroke-opacity:1;paint-order:stroke fill markers"
         id="rect954-3-4-5-3-60-3"
         width="1.3229166"
         height="0.26458332"
         x="3.4395833"
         y="68.527084"
         rx="0.13229166"
         ry="0.26458332" /><rect
         style="fill:#ffffff;fill-opacity:1;stroke:none;stroke-width:0.299164;stroke-linecap:square;stroke-dasharray:none;stroke-opacity:1;paint-order:stroke fill markers"
         id="rect954-3-4-5-3-60-3-2"
         width="1.3229166"
         height="0.26458332"
         x="3.4395833"
         y="73.554169"
         rx="0.13229166"
         ry="0.26458332" /><rect
         style="fill:#ffffff;fill-opacity:1;stroke:none;stroke-width:0.299164;stroke-linecap:square;stroke-dasharray:none;stroke-opacity:1;paint-order:stroke fill markers"
         id="rect954-3-4-5-3-60-3-2-7"
         width="1.3229166"
         height="0.26458332"
         x="3.4395833"
         y="78.316666"
         rx="0.13229166"
         ry="0.26458332" /><rect
         style="fill:#ffffff;fill-opacity:1;stroke:none;stroke-width:0.299164;stroke-linecap:square;stroke-dasharray:none;stroke-opacity:1;paint-order:stroke fill markers"
         id="rect954-3-4-9"
         width="1.3229166"
         height="0.26458332"
         x="3.4395833"
         y="43.920834"
         rx="0.13229166"
         ry="0.26458332" /></g><g
       id="g3473"
       inkscape:label="目盛数値"
       transform="translate(-1.5875)"><g
         aria-label="1000"
         id="text1923"
         style="font-size:2.31098px;font-family:'BIZ UDGothic';-inkscape-font-specification:'BIZ UDGothic';fill:#ffffff;stroke-width:0.216655;stroke-linecap:square;paint-order:markers stroke fill"><path
           d="M 6.8233896,5.8279851 V 4.1568125 q -0.1884442,0.07786 -0.4524917,0.1365374 l -0.046265,-0.165876 q 0.3723747,-0.09253 0.5563052,-0.2053703 h 0.1500783 v 1.9058815 z"
           style="font-family:'BIZ UDPGothic';-inkscape-font-specification:'BIZ UDPGothic'"
           id="path500" /><path
           d="m 8.4516827,3.9198468 q 0.32611,0 0.5122973,0.2742032 0.1749033,0.2572771 0.1749033,0.6973563 0,0.4062269 -0.1478215,0.6589904 -0.1861873,0.3193395 -0.5416359,0.3193395 -0.3340089,0 -0.5201962,-0.2866157 Q 7.7610968,5.324715 7.7610968,4.8914063 q 0,-0.4536201 0.1861874,-0.7142825 0.185059,-0.257277 0.5043985,-0.257277 z m -0.00339,0.1805453 q -0.2222965,0 -0.345293,0.2335805 -0.110584,0.2087555 -0.110584,0.5596905 0,0.3238531 0.094786,0.5269666 0.1241249,0.2640476 0.3633475,0.2640476 0.2177828,0 0.3407793,-0.2245533 0.116226,-0.2098839 0.116226,-0.5653325 0,-0.3746315 -0.1252533,-0.5867723 Q 8.6604382,4.1003921 8.4482975,4.1003921 Z"
           style="font-family:'BIZ UDPGothic';-inkscape-font-specification:'BIZ UDPGothic'"
           id="path502" /><path
           d="m 10.207486,3.9198468 q 0.32611,0 0.512297,0.2742032 0.174904,0.2572771 0.174904,0.6973563 0,0.4062269 -0.147822,0.6589904 -0.186187,0.3193395 -0.541636,0.3193395 -0.3340087,0 -0.5201961,-0.2866157 Q 9.5169001,5.324715 9.5169001,4.8914063 q 0,-0.4536201 0.1861873,-0.7142825 0.185059,-0.257277 0.5043986,-0.257277 z m -0.0034,0.1805453 q -0.2222967,0 -0.3452932,0.2335805 -0.110584,0.2087555 -0.110584,0.5596905 0,0.3238531 0.094786,0.5269666 0.1241249,0.2640476 0.3633482,0.2640476 0.217782,0 0.340779,-0.2245533 0.116226,-0.2098839 0.116226,-0.5653325 0,-0.3746315 -0.125253,-0.5867723 -0.121869,-0.2076271 -0.334009,-0.2076271 z"
           style="font-family:'BIZ UDPGothic';-inkscape-font-specification:'BIZ UDPGothic'"
           id="path504" /><path
           d="m 11.963289,3.9198468 q 0.32611,0 0.512298,0.2742032 0.174903,0.2572771 0.174903,0.6973563 0,0.4062269 -0.147822,0.6589904 -0.186187,0.3193395 -0.541636,0.3193395 -0.334008,0 -0.520196,-0.2866157 -0.168133,-0.2584055 -0.168133,-0.6917142 0,-0.4536201 0.186188,-0.7142825 0.185059,-0.257277 0.504398,-0.257277 z m -0.0034,0.1805453 q -0.222296,0 -0.345293,0.2335805 -0.110584,0.2087555 -0.110584,0.5596905 0,0.3238531 0.09479,0.5269666 0.124125,0.2640476 0.363348,0.2640476 0.217783,0 0.340779,-0.2245533 0.116226,-0.2098839 0.116226,-0.5653325 0,-0.3746315 -0.125253,-0.5867723 -0.121868,-0.2076271 -0.334009,-0.2076271 z"
           style="font-family:'BIZ UDPGothic';-inkscape-font-specification:'BIZ UDPGothic'"
           id="path506" /></g><g
         aria-label="500"
         id="text1923-0"
         style="font-size:2.31098px;font-family:'BIZ UDGothic';-inkscape-font-specification:'BIZ UDGothic';fill:#ffffff;stroke-width:0.216655;stroke-linecap:square;paint-order:markers stroke fill"><path
           d="m 6.4950228,8.7184556 h 1.0516765 v 0.185059 H 6.6778249 l -0.074475,0.65222 h 0.00903 Q 6.7872831,9.4045279 7.041175,9.4045279 q 0.2426078,0 0.4107406,0.1399226 0.1985998,0.165876 0.1985998,0.4570055 0,0.187316 -0.093658,0.335137 -0.1105841,0.17716 -0.320468,0.249378 -0.116226,0.03949 -0.2561487,0.03949 -0.387044,0 -0.6262665,-0.22004 l 0.1150976,-0.145565 q 0.093658,0.0835 0.221168,0.128639 0.1455647,0.05191 0.2900009,0.05191 0.2008567,0 0.3294952,-0.135409 0.1162261,-0.122997 0.1162261,-0.303542 0,-0.1816739 -0.1071988,-0.2956431 -0.1184829,-0.1275102 -0.32611,-0.1275102 -0.1489499,0 -0.2787168,0.072218 -0.086887,0.048521 -0.135409,0.1196112 L 6.386698,9.7419199 Z"
           style="font-family:'BIZ UDPGothic';-inkscape-font-specification:'BIZ UDPGothic'"
           id="path509" /><path
           d="m 8.7518393,8.6823466 q 0.32611,0 0.5122973,0.2742032 0.1749033,0.2572771 0.1749033,0.6973563 0,0.4062269 -0.1478215,0.6589899 -0.1861873,0.31934 -0.5416359,0.31934 -0.3340089,0 -0.5201962,-0.286616 -0.1681329,-0.258405 -0.1681329,-0.6917139 0,-0.4536201 0.1861874,-0.7142824 0.185059,-0.2572771 0.5043985,-0.2572771 z m -0.00339,0.1805453 q -0.2222965,0 -0.345293,0.2335805 -0.110584,0.2087555 -0.110584,0.5596905 0,0.3238532 0.094786,0.5269671 0.1241249,0.264047 0.3633475,0.264047 0.2177828,0 0.3407793,-0.224553 0.116226,-0.209884 0.116226,-0.5653327 0,-0.3746315 -0.1252533,-0.5867723 Q 8.9605948,8.8628919 8.7484541,8.8628919 Z"
           style="font-family:'BIZ UDPGothic';-inkscape-font-specification:'BIZ UDPGothic'"
           id="path511" /><path
           d="m 10.507643,8.6823466 q 0.326109,0 0.512297,0.2742032 0.174903,0.2572771 0.174903,0.6973563 0,0.4062269 -0.147821,0.6589899 -0.186188,0.31934 -0.541636,0.31934 -0.334009,0 -0.5201965,-0.286616 -0.1681328,-0.258405 -0.1681328,-0.6917139 0,-0.4536201 0.1861873,-0.7142824 0.185059,-0.2572771 0.504399,-0.2572771 z m -0.0034,0.1805453 q -0.222296,0 -0.345293,0.2335805 -0.110584,0.2087555 -0.110584,0.5596905 0,0.3238532 0.09479,0.5269671 0.124125,0.264047 0.363347,0.264047 0.217783,0 0.340779,-0.224553 0.116226,-0.209884 0.116226,-0.5653327 0,-0.3746315 -0.125253,-0.5867723 -0.121868,-0.2076271 -0.334009,-0.2076271 z"
           style="font-family:'BIZ UDPGothic';-inkscape-font-specification:'BIZ UDPGothic'"
           id="path513" /></g><g
         aria-label="200"
         id="text1923-0-5"
         style="font-size:2.31098px;font-family:'BIZ UDGothic';-inkscape-font-specification:'BIZ UDGothic';fill:#ffffff;stroke-width:0.216655;stroke-linecap:square;paint-order:markers stroke fill"><path
           d="m 6.3404309,15.617567 v -0.187315 q 0.1060703,-0.373504 0.577745,-0.692843 l 0.064319,-0.04401 q 0.2087555,-0.141051 0.2787168,-0.211012 0.1263817,-0.124125 0.1263817,-0.270818 0,-0.137666 -0.1038135,-0.224554 -0.110584,-0.09366 -0.290001,-0.09366 -0.27646,0 -0.4897291,0.242607 L 6.3584854,14.009586 q 0.2392225,-0.299029 0.6364222,-0.299029 0.2200397,0 0.3791452,0.09366 0.2448646,0.143308 0.2448646,0.416383 0,0.194086 -0.1545919,0.345293 -0.074475,0.07222 -0.3024134,0.230195 l -0.038366,0.02708 -0.080117,0.05529 q -0.4265383,0.292258 -0.4829587,0.542764 h 1.0832719 v 0.196343 z"
           style="font-family:'BIZ UDPGothic';-inkscape-font-specification:'BIZ UDPGothic'"
           id="path516" /><path
           d="m 8.7518393,13.709429 q 0.32611,0 0.5122973,0.274203 0.1749033,0.257277 0.1749033,0.697357 0,0.406226 -0.1478215,0.65899 -0.1861873,0.319339 -0.5416359,0.319339 -0.3340089,0 -0.5201962,-0.286615 -0.1681329,-0.258406 -0.1681329,-0.691714 0,-0.453621 0.1861874,-0.714283 0.185059,-0.257277 0.5043985,-0.257277 z m -0.00339,0.180545 q -0.2222965,0 -0.345293,0.233581 -0.110584,0.208755 -0.110584,0.55969 0,0.323854 0.094786,0.526967 0.1241249,0.264048 0.3633475,0.264048 0.2177828,0 0.3407793,-0.224554 0.116226,-0.209884 0.116226,-0.565332 0,-0.374632 -0.1252533,-0.586773 -0.1218681,-0.207627 -0.3340085,-0.207627 z"
           style="font-family:'BIZ UDPGothic';-inkscape-font-specification:'BIZ UDPGothic'"
           id="path518" /><path
           d="m 10.507643,13.709429 q 0.326109,0 0.512297,0.274203 0.174903,0.257277 0.174903,0.697357 0,0.406226 -0.147821,0.65899 -0.186188,0.319339 -0.541636,0.319339 -0.334009,0 -0.5201965,-0.286615 -0.1681328,-0.258406 -0.1681328,-0.691714 0,-0.453621 0.1861873,-0.714283 0.185059,-0.257277 0.504399,-0.257277 z m -0.0034,0.180545 q -0.222296,0 -0.345293,0.233581 -0.110584,0.208755 -0.110584,0.55969 0,0.323854 0.09479,0.526967 0.124125,0.264048 0.363347,0.264048 0.217783,0 0.340779,-0.224554 0.116226,-0.209884 0.116226,-0.565332 0,-0.374632 -0.125253,-0.586773 -0.121868,-0.207627 -0.334009,-0.207627 z"
           style="font-family:'BIZ UDPGothic';-inkscape-font-specification:'BIZ UDPGothic'"
           id="path520" /></g><g
         aria-label="100"
         id="text1923-0-3"
         style="font-size:2.31098px;font-family:'BIZ UDGothic';-inkscape-font-specification:'BIZ UDGothic';fill:#ffffff;stroke-width:0.216655;stroke-linecap:square;paint-order:markers stroke fill"><path
           d="m 6.8233896,20.380068 v -1.671172 q -0.1884442,0.07786 -0.4524917,0.136537 l -0.046265,-0.165876 q 0.3723747,-0.09253 0.5563052,-0.20537 h 0.1500783 v 1.905881 z"
           style="font-family:'BIZ UDPGothic';-inkscape-font-specification:'BIZ UDPGothic'"
           id="path523" /><path
           d="m 8.4516827,18.47193 q 0.32611,0 0.5122973,0.274203 0.1749033,0.257277 0.1749033,0.697356 0,0.406227 -0.1478215,0.658991 -0.1861873,0.319339 -0.5416359,0.319339 -0.3340089,0 -0.5201962,-0.286615 -0.1681329,-0.258406 -0.1681329,-0.691715 0,-0.45362 0.1861874,-0.714282 0.185059,-0.257277 0.5043985,-0.257277 z m -0.00339,0.180545 q -0.2222965,0 -0.345293,0.233581 -0.110584,0.208755 -0.110584,0.55969 0,0.323853 0.094786,0.526967 0.1241249,0.264047 0.3633475,0.264047 0.2177828,0 0.3407793,-0.224553 0.116226,-0.209884 0.116226,-0.565332 0,-0.374632 -0.1252533,-0.586773 -0.1218681,-0.207627 -0.3340085,-0.207627 z"
           style="font-family:'BIZ UDPGothic';-inkscape-font-specification:'BIZ UDPGothic'"
           id="path525" /><path
           d="m 10.207486,18.47193 q 0.32611,0 0.512297,0.274203 0.174904,0.257277 0.174904,0.697356 0,0.406227 -0.147822,0.658991 -0.186187,0.319339 -0.541636,0.319339 -0.3340087,0 -0.5201961,-0.286615 -0.1681328,-0.258406 -0.1681328,-0.691715 0,-0.45362 0.1861873,-0.714282 0.185059,-0.257277 0.5043986,-0.257277 z m -0.0034,0.180545 q -0.2222967,0 -0.3452932,0.233581 -0.110584,0.208755 -0.110584,0.55969 0,0.323853 0.094786,0.526967 0.1241249,0.264047 0.3633482,0.264047 0.217782,0 0.340779,-0.224553 0.116226,-0.209884 0.116226,-0.565332 0,-0.374632 -0.125253,-0.586773 -0.121869,-0.207627 -0.334009,-0.207627 z"
           style="font-family:'BIZ UDPGothic';-inkscape-font-specification:'BIZ UDPGothic'"
           id="path527" /></g><g
         aria-label="50"
         id="text1923-0-0"
         style="font-size:2.31098px;font-family:'BIZ UDGothic';-inkscape-font-specification:'BIZ UDGothic';fill:#ffffff;stroke-width:0.216655;stroke-linecap:square;paint-order:markers stroke fill"><path
           d="m 6.4950228,23.535123 h 1.0516765 v 0.185059 H 6.6778249 l -0.074475,0.65222 h 0.00903 q 0.1749032,-0.151207 0.4287951,-0.151207 0.2426078,0 0.4107406,0.139923 0.1985998,0.165876 0.1985998,0.457005 0,0.187316 -0.093658,0.335138 -0.1105841,0.17716 -0.320468,0.249378 -0.116226,0.03949 -0.2561487,0.03949 -0.387044,0 -0.6262665,-0.220039 l 0.1150976,-0.145565 q 0.093658,0.0835 0.221168,0.128638 0.1455647,0.05191 0.2900009,0.05191 0.2008567,0 0.3294952,-0.135409 0.1162261,-0.122996 0.1162261,-0.303542 0,-0.181673 -0.1071988,-0.295643 -0.1184829,-0.12751 -0.32611,-0.12751 -0.1489499,0 -0.2787168,0.07222 -0.086887,0.04852 -0.135409,0.119612 L 6.386698,24.558591 Z"
           style="font-family:'BIZ UDPGothic';-inkscape-font-specification:'BIZ UDPGothic'"
           id="path530" /><path
           d="m 8.7518393,23.499014 q 0.32611,0 0.5122973,0.274203 0.1749033,0.257277 0.1749033,0.697357 0,0.406227 -0.1478215,0.65899 -0.1861873,0.31934 -0.5416359,0.31934 -0.3340089,0 -0.5201962,-0.286616 -0.1681329,-0.258406 -0.1681329,-0.691714 0,-0.45362 0.1861874,-0.714283 0.185059,-0.257277 0.5043985,-0.257277 z m -0.00339,0.180545 q -0.2222965,0 -0.345293,0.233581 -0.110584,0.208755 -0.110584,0.55969 0,0.323854 0.094786,0.526967 0.1241249,0.264048 0.3633475,0.264048 0.2177828,0 0.3407793,-0.224554 0.116226,-0.209884 0.116226,-0.565332 0,-0.374632 -0.1252533,-0.586772 -0.1218681,-0.207628 -0.3340085,-0.207628 z"
           style="font-family:'BIZ UDPGothic';-inkscape-font-specification:'BIZ UDPGothic'"
           id="path532" /></g><g
         aria-label="20"
         id="text1923-0-0-4"
         style="font-size:2.31098px;font-family:'BIZ UDGothic';-inkscape-font-specification:'BIZ UDGothic';fill:#ffffff;stroke-width:0.216655;stroke-linecap:square;paint-order:markers stroke fill"><path
           d="m 6.3404309,30.169651 v -0.187315 q 0.1060703,-0.373504 0.577745,-0.692843 l 0.064319,-0.04401 q 0.2087555,-0.141051 0.2787168,-0.211012 0.1263817,-0.124125 0.1263817,-0.270818 0,-0.137666 -0.1038135,-0.224554 -0.110584,-0.09366 -0.290001,-0.09366 -0.27646,0 -0.4897291,0.242607 L 6.3584854,28.56167 q 0.2392225,-0.299029 0.6364222,-0.299029 0.2200397,0 0.3791452,0.09366 0.2448646,0.143308 0.2448646,0.416383 0,0.194086 -0.1545919,0.345293 -0.074475,0.07222 -0.3024134,0.230195 l -0.038366,0.02708 -0.080117,0.05529 Q 6.6168908,29.7228 6.5604704,29.973306 h 1.0832719 v 0.196343 z"
           style="font-family:'BIZ UDPGothic';-inkscape-font-specification:'BIZ UDPGothic'"
           id="path535" /><path
           d="m 8.7518393,28.261513 q 0.32611,0 0.5122973,0.274203 0.1749033,0.257277 0.1749033,0.697356 0,0.406227 -0.1478215,0.658991 -0.1861873,0.319339 -0.5416359,0.319339 -0.3340089,0 -0.5201962,-0.286615 -0.1681329,-0.258406 -0.1681329,-0.691715 0,-0.45362 0.1861874,-0.714282 0.185059,-0.257277 0.5043985,-0.257277 z m -0.00339,0.180545 q -0.2222965,0 -0.345293,0.233581 -0.110584,0.208755 -0.110584,0.55969 0,0.323853 0.094786,0.526967 0.1241249,0.264047 0.3633475,0.264047 0.2177828,0 0.3407793,-0.224553 0.116226,-0.209884 0.116226,-0.565332 0,-0.374632 -0.1252533,-0.586773 -0.1218681,-0.207627 -0.3340085,-0.207627 z"
           style="font-family:'BIZ UDPGothic';-inkscape-font-specification:'BIZ UDPGothic'"
           id="path537" /></g><g
         aria-label="10"
         id="text1923-0-0-9"
         style="font-size:2.31098px;font-family:'BIZ UDGothic';-inkscape-font-specification:'BIZ UDGothic';fill:#ffffff;stroke-width:0.216655;stroke-linecap:square;paint-order:markers stroke fill"><path
           d="m 6.8233896,35.196732 v -1.671173 q -0.1884442,0.07786 -0.4524917,0.136538 l -0.046265,-0.165876 q 0.3723747,-0.09253 0.5563052,-0.205371 h 0.1500783 v 1.905882 z"
           style="font-family:'BIZ UDPGothic';-inkscape-font-specification:'BIZ UDPGothic'"
           id="path540" /><path
           d="m 8.4516827,33.288594 q 0.32611,0 0.5122973,0.274203 0.1749033,0.257277 0.1749033,0.697356 0,0.406227 -0.1478215,0.65899 -0.1861873,0.31934 -0.5416359,0.31934 -0.3340089,0 -0.5201962,-0.286616 -0.1681329,-0.258405 -0.1681329,-0.691714 0,-0.45362 0.1861874,-0.714282 0.185059,-0.257277 0.5043985,-0.257277 z m -0.00339,0.180545 q -0.2222965,0 -0.345293,0.23358 -0.110584,0.208756 -0.110584,0.559691 0,0.323853 0.094786,0.526966 0.1241249,0.264048 0.3633475,0.264048 0.2177828,0 0.3407793,-0.224553 0.116226,-0.209884 0.116226,-0.565333 0,-0.374631 -0.1252533,-0.586772 -0.1218681,-0.207627 -0.3340085,-0.207627 z"
           style="font-family:'BIZ UDPGothic';-inkscape-font-specification:'BIZ UDPGothic'"
           id="path542" /></g><g
         aria-label="5"
         id="text1923-0-0-1"
         style="font-size:2.31098px;font-family:'BIZ UDGothic';-inkscape-font-specification:'BIZ UDGothic';fill:#ffffff;stroke-width:0.216655;stroke-linecap:square;paint-order:markers stroke fill"><path
           d="m 6.4950228,38.351787 h 1.0516765 v 0.185059 H 6.6778249 l -0.074475,0.65222 h 0.00903 q 0.1749032,-0.151207 0.4287951,-0.151207 0.2426078,0 0.4107406,0.139923 0.1985998,0.165876 0.1985998,0.457005 0,0.187316 -0.093658,0.335137 -0.1105841,0.17716 -0.320468,0.249379 -0.116226,0.03949 -0.2561487,0.03949 -0.387044,0 -0.6262665,-0.22004 l 0.1150976,-0.145564 q 0.093658,0.0835 0.221168,0.128638 0.1455647,0.05191 0.2900009,0.05191 0.2008567,0 0.3294952,-0.135409 0.1162261,-0.122997 0.1162261,-0.303542 0,-0.181674 -0.1071988,-0.295643 -0.1184829,-0.12751 -0.32611,-0.12751 -0.1489499,0 -0.2787168,0.07222 -0.086887,0.04852 -0.135409,0.119611 L 6.386698,39.375254 Z"
           style="font-family:'BIZ UDPGothic';-inkscape-font-specification:'BIZ UDPGothic'"
           id="path545" /></g><g
         aria-label="2"
         id="text1923-0-0-8"
         style="font-size:2.31098px;font-family:'BIZ UDGothic';-inkscape-font-specification:'BIZ UDGothic';fill:#ffffff;stroke-width:0.216655;stroke-linecap:square;paint-order:markers stroke fill"><path
           d="m 6.3404309,44.986317 v -0.187316 q 0.1060703,-0.373503 0.577745,-0.692842 l 0.064319,-0.04401 Q 7.1912507,43.9211 7.261212,43.851138 7.3875937,43.727013 7.3875937,43.58032 q 0,-0.137665 -0.1038135,-0.224553 -0.110584,-0.09366 -0.290001,-0.09366 -0.27646,0 -0.4897291,0.242608 l -0.1455647,-0.12638 q 0.2392225,-0.299028 0.6364222,-0.299028 0.2200397,0 0.3791452,0.09366 0.2448646,0.143308 0.2448646,0.416383 0,0.194086 -0.1545919,0.345292 -0.074475,0.07222 -0.3024134,0.230196 l -0.038366,0.02708 -0.080117,0.05529 q -0.4265383,0.292257 -0.4829587,0.542764 h 1.0832719 v 0.196343 z"
           style="font-family:'BIZ UDPGothic';-inkscape-font-specification:'BIZ UDPGothic'"
           id="path548" /></g><g
         aria-label="1"
         id="text1923-0-0-5"
         style="font-size:2.31098px;font-family:'BIZ UDGothic';-inkscape-font-specification:'BIZ UDGothic';fill:#ffffff;stroke-width:0.216655;stroke-linecap:square;paint-order:markers stroke fill"><path
           d="m 6.8233896,50.013401 v -1.671172 q -0.1884442,0.07786 -0.4524917,0.136537 L 6.3246332,48.31289 q 0.3723747,-0.09253 0.5563052,-0.20537 h 0.1500783 v 1.905881 z"
           style="font-family:'BIZ UDPGothic';-inkscape-font-specification:'BIZ UDPGothic'"
           id="path551" /></g><g
         aria-label="0.5"
         id="text1923-0-0-6"
         style="font-size:2.31098px;font-family:'BIZ UDGothic';-inkscape-font-specification:'BIZ UDGothic';fill:#ffffff;stroke-width:0.216655;stroke-linecap:square;paint-order:markers stroke fill"><path
           d="m 6.9960361,52.86776 q 0.3261099,0 0.5122973,0.274203 0.1749033,0.257277 0.1749033,0.697356 0,0.406227 -0.1478215,0.658991 -0.1861874,0.319339 -0.541636,0.319339 -0.3340088,0 -0.5201962,-0.286615 -0.1681328,-0.258406 -0.1681328,-0.691715 0,-0.45362 0.1861874,-0.714282 0.1850589,-0.257277 0.5043985,-0.257277 z m -0.00339,0.180545 q -0.2222964,0 -0.3452929,0.233581 -0.110584,0.208755 -0.110584,0.55969 0,0.323853 0.094786,0.526967 0.1241249,0.264047 0.3633474,0.264047 0.2177828,0 0.3407793,-0.224553 0.1162261,-0.209884 0.1162261,-0.565332 0,-0.374632 -0.1252533,-0.586773 -0.1218681,-0.207627 -0.3340086,-0.207627 z"
           style="font-family:'BIZ UDPGothic';-inkscape-font-specification:'BIZ UDPGothic'"
           id="path554" /><path
           d="m 8.0330432,54.452045 h 0.3238532 v 0.323853 H 8.0330432 Z"
           style="font-family:'BIZ UDPGothic';-inkscape-font-specification:'BIZ UDPGothic'"
           id="path556" /><path
           d="m 8.9673653,52.903869 h 1.0516767 v 0.185059 H 9.1501674 l -0.074475,0.65222 h 0.00903 q 0.1749033,-0.151207 0.4287952,-0.151207 0.2426078,0 0.4107406,0.139923 0.1985998,0.165876 0.1985998,0.457005 0,0.187316 -0.09366,0.335137 -0.1105839,0.177161 -0.3204678,0.249379 -0.116226,0.03949 -0.2561487,0.03949 -0.387044,0 -0.6262665,-0.22004 l 0.1150976,-0.145564 q 0.093658,0.0835 0.221168,0.128638 0.1455647,0.05191 0.2900009,0.05191 0.2008567,0 0.3294952,-0.135409 0.1162261,-0.122997 0.1162261,-0.303542 0,-0.181674 -0.1071988,-0.295643 -0.1184829,-0.12751 -0.32611,-0.12751 -0.1489499,0 -0.2787168,0.07222 -0.086887,0.04852 -0.135409,0.119611 l -0.1918294,-0.02821 z"
           style="font-family:'BIZ UDPGothic';-inkscape-font-specification:'BIZ UDPGothic'"
           id="path558" /></g><g
         aria-label="0.2"
         id="text1923-0-0-3"
         style="font-size:2.31098px;font-family:'BIZ UDGothic';-inkscape-font-specification:'BIZ UDGothic';fill:#ffffff;stroke-width:0.216655;stroke-linecap:square;paint-order:markers stroke fill"><path
           d="m 6.9960361,57.894844 q 0.3261099,0 0.5122973,0.274203 0.1749033,0.257278 0.1749033,0.697357 0,0.406227 -0.1478215,0.65899 -0.1861874,0.31934 -0.541636,0.31934 -0.3340088,0 -0.5201962,-0.286616 -0.1681328,-0.258405 -0.1681328,-0.691714 0,-0.45362 0.1861874,-0.714283 0.1850589,-0.257277 0.5043985,-0.257277 z m -0.00339,0.180546 q -0.2222964,0 -0.3452929,0.23358 -0.110584,0.208756 -0.110584,0.559691 0,0.323853 0.094786,0.526966 0.1241249,0.264048 0.3633474,0.264048 0.2177828,0 0.3407793,-0.224553 0.1162261,-0.209884 0.1162261,-0.565333 0,-0.374632 -0.1252533,-0.586772 Q 7.2047916,58.07539 6.9926508,58.07539 Z"
           style="font-family:'BIZ UDPGothic';-inkscape-font-specification:'BIZ UDPGothic'"
           id="path561" /><path
           d="m 8.0330432,59.479129 h 0.3238532 v 0.323854 H 8.0330432 Z"
           style="font-family:'BIZ UDPGothic';-inkscape-font-specification:'BIZ UDPGothic'"
           id="path563" /><path
           d="m 8.8127734,59.802983 v -0.187316 q 0.1060703,-0.373503 0.577745,-0.692843 l 0.064319,-0.04401 q 0.2087555,-0.141051 0.2787168,-0.211012 0.1263817,-0.124125 0.1263817,-0.270818 0,-0.137666 -0.1038135,-0.224553 -0.1105841,-0.09366 -0.290001,-0.09366 -0.27646,0 -0.4897291,0.242608 L 8.8308279,58.195001 q 0.2392225,-0.299028 0.6364222,-0.299028 0.2200396,0 0.3791452,0.09366 0.2448647,0.143307 0.2448647,0.416382 0,0.194086 -0.154592,0.345293 -0.074475,0.07222 -0.3024134,0.230195 l -0.038366,0.02708 -0.080117,0.05529 Q 9.0892334,59.356133 9.032813,59.60664 h 1.083272 v 0.196343 z"
           style="font-family:'BIZ UDPGothic';-inkscape-font-specification:'BIZ UDPGothic'"
           id="path565" /></g><g
         aria-label="0.1"
         id="text1923-0-0-88"
         style="font-size:2.31098px;font-family:'BIZ UDGothic';-inkscape-font-specification:'BIZ UDGothic';fill:#ffffff;stroke-width:0.216655;stroke-linecap:square;paint-order:markers stroke fill"><path
           d="m 6.9960361,62.921932 q 0.3261099,0 0.5122973,0.274204 0.1749033,0.257277 0.1749033,0.697356 0,0.406227 -0.1478215,0.65899 -0.1861874,0.31934 -0.541636,0.31934 -0.3340088,0 -0.5201962,-0.286616 -0.1681328,-0.258405 -0.1681328,-0.691714 0,-0.45362 0.1861874,-0.714282 0.1850589,-0.257278 0.5043985,-0.257278 z m -0.00339,0.180546 q -0.2222964,0 -0.3452929,0.23358 -0.110584,0.208756 -0.110584,0.559691 0,0.323853 0.094786,0.526966 0.1241249,0.264048 0.3633474,0.264048 0.2177828,0 0.3407793,-0.224553 0.1162261,-0.209884 0.1162261,-0.565333 0,-0.374631 -0.1252533,-0.586772 -0.1218681,-0.207627 -0.3340086,-0.207627 z"
           style="font-family:'BIZ UDPGothic';-inkscape-font-specification:'BIZ UDPGothic'"
           id="path568" /><path
           d="m 8.0330432,64.506218 h 0.3238532 v 0.323853 H 8.0330432 Z"
           style="font-family:'BIZ UDPGothic';-inkscape-font-specification:'BIZ UDPGothic'"
           id="path570" /><path
           d="m 9.2957321,64.830071 v -1.671173 q -0.1884442,0.07786 -0.4524917,0.136538 L 8.7969756,63.12956 q 0.3723748,-0.09253 0.5563053,-0.205371 h 0.1500783 v 1.905882 z"
           style="font-family:'BIZ UDPGothic';-inkscape-font-specification:'BIZ UDPGothic'"
           id="path572" /></g><g
         aria-label="0.05"
         id="text1923-0-0-13"
         style="font-size:2.31098px;font-family:'BIZ UDGothic';-inkscape-font-specification:'BIZ UDGothic';fill:#ffffff;stroke-width:0.216655;stroke-linecap:square;paint-order:markers stroke fill"><path
           d="m 6.9960361,67.684429 q 0.3261099,0 0.5122973,0.274204 0.1749033,0.257277 0.1749033,0.697356 0,0.406227 -0.1478215,0.65899 -0.1861874,0.31934 -0.541636,0.31934 -0.3340088,0 -0.5201962,-0.286616 -0.1681328,-0.258405 -0.1681328,-0.691714 0,-0.45362 0.1861874,-0.714283 0.1850589,-0.257277 0.5043985,-0.257277 z m -0.00339,0.180546 q -0.2222964,0 -0.3452929,0.23358 -0.110584,0.208756 -0.110584,0.559691 0,0.323853 0.094786,0.526966 0.1241249,0.264048 0.3633474,0.264048 0.2177828,0 0.3407793,-0.224553 0.1162261,-0.209884 0.1162261,-0.565333 0,-0.374631 -0.1252533,-0.586772 -0.1218681,-0.207627 -0.3340086,-0.207627 z"
           style="font-family:'BIZ UDPGothic';-inkscape-font-specification:'BIZ UDPGothic'"
           id="path575" /><path
           d="m 8.0330432,69.268715 h 0.3238532 v 0.323853 H 8.0330432 Z"
           style="font-family:'BIZ UDPGothic';-inkscape-font-specification:'BIZ UDPGothic'"
           id="path577" /><path
           d="m 9.4683785,67.684429 q 0.32611,0 0.5122974,0.274204 0.1749031,0.257277 0.1749031,0.697356 0,0.406227 -0.147821,0.65899 -0.1861877,0.31934 -0.5416363,0.31934 -0.3340088,0 -0.5201962,-0.286616 -0.1681328,-0.258405 -0.1681328,-0.691714 0,-0.45362 0.1861874,-0.714283 0.1850589,-0.257277 0.5043984,-0.257277 z m -0.00339,0.180546 q -0.2222964,0 -0.3452929,0.23358 -0.110584,0.208756 -0.110584,0.559691 0,0.323853 0.094786,0.526966 0.1241249,0.264048 0.3633474,0.264048 0.2177828,0 0.3407793,-0.224553 0.1162261,-0.209884 0.1162261,-0.565333 0,-0.374631 -0.1252533,-0.586772 Q 9.677129,67.864975 9.4649885,67.864975 Z"
           style="font-family:'BIZ UDPGothic';-inkscape-font-specification:'BIZ UDPGothic'"
           id="path579" /><path
           d="m 10.723168,67.720538 h 1.051677 v 0.185059 h -0.868874 l -0.07447,0.65222 h 0.009 q 0.174903,-0.151206 0.428795,-0.151206 0.242608,0 0.410741,0.139922 0.198599,0.165876 0.198599,0.457006 0,0.187315 -0.09366,0.335137 -0.110584,0.17716 -0.320468,0.249378 -0.116226,0.03949 -0.256149,0.03949 -0.387044,0 -0.626267,-0.220039 L 10.69719,69.26194 q 0.09366,0.0835 0.221168,0.128639 0.145565,0.05191 0.290001,0.05191 0.200857,0 0.329495,-0.135409 0.116226,-0.122996 0.116226,-0.303541 0,-0.181674 -0.107199,-0.295643 -0.118482,-0.12751 -0.32611,-0.12751 -0.148949,0 -0.278716,0.07222 -0.08689,0.04852 -0.135409,0.119611 l -0.19183,-0.02821 z"
           style="font-family:'BIZ UDPGothic';-inkscape-font-specification:'BIZ UDPGothic'"
           id="path581" /></g><g
         aria-label="0.02"
         id="text1923-0-0-7"
         style="font-size:2.31098px;font-family:'BIZ UDGothic';-inkscape-font-specification:'BIZ UDGothic';fill:#ffffff;stroke-width:0.216655;stroke-linecap:square;paint-order:markers stroke fill"><path
           d="m 6.9960361,72.711514 q 0.3261099,0 0.5122973,0.274203 0.1749033,0.257277 0.1749033,0.697356 0,0.406227 -0.1478215,0.658991 -0.1861874,0.319339 -0.541636,0.319339 -0.3340088,0 -0.5201962,-0.286615 -0.1681328,-0.258406 -0.1681328,-0.691715 0,-0.45362 0.1861874,-0.714282 0.1850589,-0.257277 0.5043985,-0.257277 z m -0.00339,0.180545 q -0.2222964,0 -0.3452929,0.233581 -0.110584,0.208755 -0.110584,0.55969 0,0.323853 0.094786,0.526967 0.1241249,0.264047 0.3633474,0.264047 0.2177828,0 0.3407793,-0.224553 0.1162261,-0.209884 0.1162261,-0.565333 0,-0.374631 -0.1252533,-0.586772 -0.1218681,-0.207627 -0.3340086,-0.207627 z"
           style="font-family:'BIZ UDPGothic';-inkscape-font-specification:'BIZ UDPGothic'"
           id="path584" /><path
           d="m 8.0330432,74.295799 h 0.3238532 v 0.323853 H 8.0330432 Z"
           style="font-family:'BIZ UDPGothic';-inkscape-font-specification:'BIZ UDPGothic'"
           id="path586" /><path
           d="m 9.4683785,72.711514 q 0.32611,0 0.5122974,0.274203 0.1749031,0.257277 0.1749031,0.697356 0,0.406227 -0.147821,0.658991 -0.1861877,0.319339 -0.5416363,0.319339 -0.3340088,0 -0.5201962,-0.286615 -0.1681328,-0.258406 -0.1681328,-0.691715 0,-0.45362 0.1861874,-0.714282 0.1850589,-0.257277 0.5043984,-0.257277 z m -0.00339,0.180545 q -0.2222964,0 -0.3452929,0.233581 -0.110584,0.208755 -0.110584,0.55969 0,0.323853 0.094786,0.526967 0.1241249,0.264047 0.3633474,0.264047 0.2177828,0 0.3407793,-0.224553 0.1162261,-0.209884 0.1162261,-0.565333 0,-0.374631 -0.1252533,-0.586772 Q 9.677129,72.892059 9.4649885,72.892059 Z"
           style="font-family:'BIZ UDPGothic';-inkscape-font-specification:'BIZ UDPGothic'"
           id="path588" /><path
           d="m 10.568576,74.619652 v -0.187316 q 0.106071,-0.373503 0.577745,-0.692842 l 0.06432,-0.04401 q 0.208755,-0.141051 0.278717,-0.211013 0.126381,-0.124125 0.126381,-0.270818 0,-0.137665 -0.103813,-0.224553 -0.110584,-0.09366 -0.290001,-0.09366 -0.27646,0 -0.489729,0.242608 L 10.586631,73.01167 q 0.239223,-0.299028 0.636422,-0.299028 0.22004,0 0.379145,0.09366 0.244865,0.143308 0.244865,0.416383 0,0.194086 -0.154592,0.345293 -0.07447,0.07222 -0.302413,0.230195 l -0.03837,0.02708 -0.08012,0.05529 q -0.426539,0.292257 -0.482959,0.542764 h 1.083272 v 0.196343 z"
           style="font-family:'BIZ UDPGothic';-inkscape-font-specification:'BIZ UDPGothic'"
           id="path590" /></g><g
         aria-label="0.01"
         id="text1923-0-0-97"
         style="font-size:2.31098px;font-family:'BIZ UDGothic';-inkscape-font-specification:'BIZ UDGothic';fill:#ffffff;stroke-width:0.216655;stroke-linecap:square;paint-order:markers stroke fill"><path
           d="m 6.9960361,77.474011 q 0.3261099,0 0.5122973,0.274203 0.1749033,0.257277 0.1749033,0.697356 0,0.406227 -0.1478215,0.658991 -0.1861874,0.319339 -0.541636,0.319339 -0.3340088,0 -0.5201962,-0.286616 -0.1681328,-0.258405 -0.1681328,-0.691714 0,-0.45362 0.1861874,-0.714282 0.1850589,-0.257277 0.5043985,-0.257277 z m -0.00339,0.180545 q -0.2222964,0 -0.3452929,0.233581 -0.110584,0.208755 -0.110584,0.55969 0,0.323853 0.094786,0.526967 0.1241249,0.264047 0.3633474,0.264047 0.2177828,0 0.3407793,-0.224553 0.1162261,-0.209884 0.1162261,-0.565333 0,-0.374631 -0.1252533,-0.586772 -0.1218681,-0.207627 -0.3340086,-0.207627 z"
           style="font-family:'BIZ UDPGothic';-inkscape-font-specification:'BIZ UDPGothic'"
           id="path593" /><path
           d="m 8.0330432,79.058296 h 0.3238532 v 0.323853 H 8.0330432 Z"
           style="font-family:'BIZ UDPGothic';-inkscape-font-specification:'BIZ UDPGothic'"
           id="path595" /><path
           d="m 9.4683785,77.474011 q 0.32611,0 0.5122974,0.274203 0.1749031,0.257277 0.1749031,0.697356 0,0.406227 -0.147821,0.658991 -0.1861877,0.319339 -0.5416363,0.319339 -0.3340088,0 -0.5201962,-0.286616 -0.1681328,-0.258405 -0.1681328,-0.691714 0,-0.45362 0.1861874,-0.714282 0.1850589,-0.257277 0.5043984,-0.257277 z m -0.00339,0.180545 q -0.2222964,0 -0.3452929,0.233581 -0.110584,0.208755 -0.110584,0.55969 0,0.323853 0.094786,0.526967 0.1241249,0.264047 0.3633474,0.264047 0.2177828,0 0.3407793,-0.224553 0.1162261,-0.209884 0.1162261,-0.565333 0,-0.374631 -0.1252533,-0.586772 Q 9.677129,77.654556 9.4649885,77.654556 Z"
           style="font-family:'BIZ UDPGothic';-inkscape-font-specification:'BIZ UDPGothic'"
           id="path597" /><path
           d="m 11.051535,79.382149 v -1.671173 q -0.188444,0.07786 -0.452492,0.136538 l -0.04626,-0.165876 q 0.372374,-0.09253 0.556305,-0.20537 h 0.150078 v 1.905881 z"
           style="font-family:'BIZ UDPGothic';-inkscape-font-specification:'BIZ UDPGothic'"
           id="path599" /></g></g><g
       aria-label="PGA[gal]"
       id="text8351"
       style="font-size:2.53513px;font-family:HGMinchoE;-inkscape-font-specification:HGMinchoE;fill:#ffffff;stroke:#ffffff;stroke-width:3.65914;stroke-linecap:square;paint-order:stroke fill markers"
       inkscape:label="単位"><path
         d="m 1.0749255,0.17701348 h 0.6870104 q 0.3069884,0 0.5013318,0.10397995 0.094077,0.0507521 0.1584457,0.13245064 0.1250235,0.15720777 0.1250235,0.37383265 0,0.64244748 -0.7984174,0.64244748 H 1.3101183 V 2.2306173 H 1.0749255 Z M 1.3101183,0.37507052 V 1.2341429 H 1.700043 q 0.3057506,0 0.4431527,-0.094077 0.1473049,-0.099028 0.1473049,-0.34907551 0,-0.22528988 -0.1683485,-0.33050768 -0.1361642,-0.0854121 -0.3812598,-0.0854121 z"
         style="font-family:'BIZ UDPGothic';-inkscape-font-specification:'BIZ UDPGothic';stroke:none"
         id="path9907" /><path
         d="M 4.4233272,2.2417581 4.382478,1.9780946 Q 4.3292501,2.0511282 4.269833,2.1006424 4.0668246,2.2689909 3.7883069,2.2689909 3.36496,2.2689909 3.0901558,1.9743811 2.821541,1.6871984 2.821541,1.2106236 q 0,-0.47162328 0.2809934,-0.77737383 0.2723284,-0.29708555 0.7031025,-0.29708555 0.2624255,0 0.456769,0.0854121 0.1250235,0.0557035 0.2649013,0.16587276 L 4.3948565,0.56198684 Q 4.2760223,0.45676904 4.1621395,0.40725479 4.0160725,0.34412411 3.8143019,0.34412411 q -0.3255563,0 -0.5310405,0.22776558 Q 3.0753016,0.802131 3.0753016,1.2143372 q 0,0.3218427 0.1361642,0.5335161 0.1002663,0.1559699 0.2636634,0.2376685 0.1497806,0.075509 0.3255562,0.075509 0.2116735,0 0.3688813,-0.1089314 Q 4.304493,1.8604983 4.3775265,1.7391883 V 1.4222971 H 3.7944962 V 1.2267158 h 0.8058445 v 1.0150423 z"
         style="font-family:'BIZ UDPGothic';-inkscape-font-specification:'BIZ UDPGothic';stroke:none"
         id="path9909" /><path
         d="M 5.6537565,0.16711063 H 5.8926628 L 6.7059345,2.2306173 H 6.4472225 L 6.2169812,1.6253055 H 5.3294381 L 5.0991968,2.2306173 H 4.8404848 Z M 6.1488991,1.4297242 5.9335121,0.86154811 Q 5.8159157,0.55951113 5.77878,0.40601693 H 5.76888 Q 5.7317415,0.55084613 5.6141451,0.86154811 L 5.3987581,1.4297242 Z"
         style="font-family:'BIZ UDPGothic';-inkscape-font-specification:'BIZ UDPGothic';stroke:none"
         id="path9911" /><path
         d="M 7.0958597,1.1408702e-8 H 7.826195 V 0.19805704 H 7.2939167 V 2.2108116 H 7.826195 V 2.4088687 H 7.0958597 Z"
         style="font-family:'BIZ UDPGothic';-inkscape-font-specification:'BIZ UDPGothic';stroke:none"
         id="path9913" /><path
         d="M 9.4762574,0.73528675 V 1.828314 q 0,0.3156534 -0.1596835,0.474099 -0.1683485,0.1671106 -0.4889533,0.1671106 -0.3651676,0 -0.6164525,-0.1931056 L 8.323813,2.1093074 q 0.1992949,0.1671106 0.5050455,0.1671106 0.258712,0 0.3626919,-0.1732999 0.056941,-0.094077 0.056941,-0.2277656 V 1.7057662 Q 9.1828854,1.7924162 9.0751919,1.8444061 8.945217,1.906299 8.8127663,1.906299 8.6035686,1.906299 8.436458,1.7973676 8.169081,1.6253055 8.169081,1.3034629 q 0,-0.284707 0.2302413,-0.46419621 0.1819649,-0.13987778 0.4171576,-0.13987778 0.258712,0 0.4419148,0.16711062 L 9.2967682,0.73528675 Z M 9.2484918,1.1177844 Q 9.1110897,0.89249452 8.832572,0.89249452 q -0.1324506,0 -0.2339548,0.0618928 Q 8.410463,1.0682701 8.410463,1.302225 q 0,0.1534942 0.096553,0.267377 0.1200721,0.1435913 0.3218427,0.1435913 0.2104356,0 0.3503134,-0.1473049 0.038374,-0.039611 0.06932,-0.095315 z"
         style="font-family:'BIZ UDPGothic';-inkscape-font-specification:'BIZ UDPGothic';stroke:none"
         id="path9915" /><path
         d="M 10.888652,1.284895 V 1.236619 q 0,-0.1782513 -0.09779,-0.26613913 -0.08912,-0.0804607 -0.274804,-0.0804607 -0.272328,0 -0.500094,0.17453783 L 9.914459,0.89992166 q 0.264901,-0.20053275 0.605312,-0.20053275 0.309464,0 0.466672,0.16711062 0.129975,0.13863997 0.129975,0.38125977 V 1.784989 q 0,0.284707 0.08913,0.4456283 h -0.222814 q -0.04828,-0.102742 -0.0718,-0.2636634 h -0.0074 q -0.07056,0.1262614 -0.20796,0.215387 -0.139877,0.091601 -0.345362,0.091601 -0.214149,0 -0.3552643,-0.1262613 Q 9.8464049,2.0139921 9.8464049,1.80727 q 0,-0.2475713 0.2166251,-0.3862112 0.214149,-0.1361642 0.65235,-0.1361642 z m 0,0.1757756 h -0.159683 q -0.643686,0 -0.643686,0.3441241 0,0.1114071 0.06932,0.1856785 0.08417,0.087888 0.231479,0.087888 0.19063,0 0.334222,-0.1213099 0.168348,-0.1411157 0.168348,-0.3342213 z"
         style="font-family:'BIZ UDPGothic';-inkscape-font-specification:'BIZ UDPGothic';stroke:none"
         id="path9917" /><path
         d="m 11.627652,0.06313069 h 0.232717 V 1.9929489 q 0,0.048276 0.0458,0.048276 h 0.198057 l -0.02599,0.189392 h -0.235193 q -0.215387,0 -0.215387,-0.2104356 z"
         style="font-family:'BIZ UDPGothic';-inkscape-font-specification:'BIZ UDPGothic';stroke:none"
         id="path9919" /><path
         d="M 13.093274,1.1408702e-8 V 2.4088687 H 12.362939 V 2.2108116 h 0.532278 V 0.19805704 H 12.362939 V 1.1408702e-8 Z"
         style="font-family:'BIZ UDPGothic';-inkscape-font-specification:'BIZ UDPGothic';stroke:none"
         id="path9921" /></g><g
       id="g3491"
       inkscape:label="基準線"
       transform="matrix(0.27235557,0,0,1,0.88717613,0.06614576)"><rect
         style="fill:#000000;fill-opacity:0.365979;stroke:none;stroke-width:0.313352;stroke-linecap:square;stroke-dasharray:none;stroke-opacity:1;paint-order:stroke fill markers"
         id="rect954-7"
         width="2.9143887"
         height="0.13229166"
         x="0.26458332"
         y="4.8286457"
         rx="0.097146288"
         ry="6.8755153e-06" /><rect
         style="fill:#000000;fill-opacity:0.365979;stroke:none;stroke-width:0.313353;stroke-linecap:square;stroke-dasharray:none;stroke-opacity:1;paint-order:stroke fill markers"
         id="rect954-3-9"
         width="2.9143887"
         height="0.13229166"
         x="0.26458332"
         y="9.5911436"
         rx="0.097146288"
         ry="6.8755153e-06" /><rect
         style="fill:#000000;fill-opacity:0.365979;stroke:none;stroke-width:0.313353;stroke-linecap:square;stroke-dasharray:none;stroke-opacity:1;paint-order:stroke fill markers"
         id="rect954-3-1-8"
         width="2.9143887"
         height="0.13229166"
         x="0.26458332"
         y="14.618227"
         rx="0.097146288"
         ry="6.8755153e-06" /><rect
         style="fill:#000000;fill-opacity:0.365979;stroke:none;stroke-width:0.313353;stroke-linecap:square;stroke-dasharray:none;stroke-opacity:1;paint-order:stroke fill markers"
         id="rect954-3-7-5"
         width="2.9143887"
         height="0.13229166"
         x="0.26458332"
         y="19.38073"
         rx="0.097146288"
         ry="6.8755153e-06" /><rect
         style="fill:#000000;fill-opacity:0.365979;stroke:none;stroke-width:0.313353;stroke-linecap:square;stroke-dasharray:none;stroke-opacity:1;paint-order:stroke fill markers"
         id="rect954-3-4-6"
         width="2.9143887"
         height="0.13229166"
         x="0.26458332"
         y="24.407814"
         rx="0.097146288"
         ry="6.8755153e-06" /><rect
         style="fill:#000000;fill-opacity:0.365979;stroke:none;stroke-width:0.313353;stroke-linecap:square;stroke-dasharray:none;stroke-opacity:1;paint-order:stroke fill markers"
         id="rect954-3-4-7-4"
         width="2.9143887"
         height="0.13229166"
         x="0.26458332"
         y="29.170311"
         rx="0.097146288"
         ry="6.8755153e-06" /><rect
         style="fill:#000000;fill-opacity:0.365979;stroke:none;stroke-width:0.313353;stroke-linecap:square;stroke-dasharray:none;stroke-opacity:1;paint-order:stroke fill markers"
         id="rect954-3-4-5-0"
         width="2.9143887"
         height="0.13229166"
         x="0.26458332"
         y="34.197395"
         rx="0.097146288"
         ry="6.8755153e-06" /><rect
         style="fill:#000000;fill-opacity:0.365979;stroke:none;stroke-width:0.313353;stroke-linecap:square;stroke-dasharray:none;stroke-opacity:1;paint-order:stroke fill markers"
         id="rect954-3-4-0-2"
         width="2.9143887"
         height="0.13229166"
         x="0.26458332"
         y="39.22448"
         rx="0.097146288"
         ry="6.8755153e-06" /><rect
         style="fill:#000000;fill-opacity:0.365979;stroke:none;stroke-width:0.313353;stroke-linecap:square;stroke-dasharray:none;stroke-opacity:1;paint-order:stroke fill markers"
         id="rect954-3-4-5-3-7"
         width="2.9143887"
         height="0.13229166"
         x="0.26458332"
         y="49.014065"
         rx="0.097146288"
         ry="6.8755153e-06" /><rect
         style="fill:#000000;fill-opacity:0.365979;stroke:none;stroke-width:0.313353;stroke-linecap:square;stroke-dasharray:none;stroke-opacity:1;paint-order:stroke fill markers"
         id="rect954-3-4-5-3-9-1"
         width="2.9143887"
         height="0.13229166"
         x="0.26458332"
         y="53.776562"
         rx="0.097146288"
         ry="6.8755153e-06" /><rect
         style="fill:#000000;fill-opacity:0.365979;stroke:none;stroke-width:0.313353;stroke-linecap:square;stroke-dasharray:none;stroke-opacity:1;paint-order:stroke fill markers"
         id="rect954-3-4-5-3-6-6"
         width="2.9143887"
         height="0.13229166"
         x="0.26458332"
         y="58.803646"
         rx="0.097146288"
         ry="6.8755153e-06" /><rect
         style="fill:#000000;fill-opacity:0.365979;stroke:none;stroke-width:0.313353;stroke-linecap:square;stroke-dasharray:none;stroke-opacity:1;paint-order:stroke fill markers"
         id="rect954-3-4-5-3-60-6"
         width="2.9143887"
         height="0.13229166"
         x="0.26458332"
         y="63.83073"
         rx="0.097146288"
         ry="6.8755153e-06" /><rect
         style="fill:#000000;fill-opacity:0.365979;stroke:none;stroke-width:0.313353;stroke-linecap:square;stroke-dasharray:none;stroke-opacity:1;paint-order:stroke fill markers"
         id="rect954-3-4-5-3-60-3-1"
         width="2.9143887"
         height="0.13229166"
         x="0.26458332"
         y="68.593231"
         rx="0.097146288"
         ry="6.8755153e-06" /><rect
         style="fill:#000000;fill-opacity:0.365979;stroke:none;stroke-width:0.313353;stroke-linecap:square;stroke-dasharray:none;stroke-opacity:1;paint-order:stroke fill markers"
         id="rect954-3-4-5-3-60-3-2-3"
         width="2.9143887"
         height="0.13229166"
         x="0.26458332"
         y="73.620316"
         rx="0.097146288"
         ry="6.8755153e-06" /><rect
         style="fill:#000000;fill-opacity:0.365979;stroke:none;stroke-width:0.313353;stroke-linecap:square;stroke-dasharray:none;stroke-opacity:1;paint-order:stroke fill markers"
         id="rect954-3-4-5-3-60-3-2-7-4"
         width="2.9143887"
         height="0.13229166"
         x="0.26458332"
         y="78.382812"
         rx="0.097146288"
         ry="6.8755153e-06" /><rect
         style="fill:#000000;fill-opacity:0.365979;stroke:none;stroke-width:0.313353;stroke-linecap:square;stroke-dasharray:none;stroke-opacity:1;paint-order:stroke fill markers"
         id="rect954-3-4-9-1"
         width="2.9143887"
         height="0.13229166"
         x="0.26458332"
         y="43.98698"
         rx="0.097146288"
         ry="6.8755153e-06" /></g></g></svg>
