<?xml version="1.0" encoding="UTF-8" standalone="no"?>
<!-- Created with Inkscape (http://www.inkscape.org/) -->

<svg
   width="46"
   height="310"
   viewBox="0 0 12.170833 82.020832"
   version="1.1"
   id="svg5"
   xml:space="preserve"
   xmlns:xlink="http://www.w3.org/1999/xlink"
   xmlns="http://www.w3.org/2000/svg"
   xmlns:svg="http://www.w3.org/2000/svg"><defs
     id="defs2"><linearGradient
       xlink:href="#linearGradient923"
       id="linearGradient945"
       x1="3.175"
       y1="4.4979167"
       x2="3.4395833"
       y2="78.845848"
       gradientUnits="userSpaceOnUse"
       gradientTransform="translate(1.5000001,1.1244791)" /><linearGradient
       id="linearGradient923"><stop
         style="stop-color:#c20000;stop-opacity:1;"
         offset="0"
         id="stop133" /><stop
         style="stop-color:#c30000;"
         offset="4%"
         id="stop135" /><stop
         style="stop-color:#cc0000;"
         offset="5%"
         id="stop137" /><stop
         style="stop-color:#d20000;"
         offset="6%"
         id="stop139" /><stop
         style="stop-color:#db0402;"
         offset="7%"
         id="stop141" /><stop
         style="stop-color:#db0402;"
         offset="8%"
         id="stop143" /><stop
         style="stop-color:#e30600;"
         offset="9%"
         id="stop145" /><stop
         style="stop-color:#ec0b00;"
         offset="10%"
         id="stop147" /><stop
         style="stop-color:#f51000;"
         offset="11%"
         id="stop149" /><stop
         style="stop-color:#fd1400;"
         offset="13%"
         id="stop151" /><stop
         style="stop-color:#fe1605;"
         offset="14%"
         id="stop153" /><stop
         style="stop-color:#ff2300;"
         offset="15%"
         id="stop155" /><stop
         style="stop-color:#ff2b00;"
         offset="16%"
         id="stop157" /><stop
         style="stop-color:#ff2b00;"
         offset="17%"
         id="stop159" /><stop
         style="stop-color:#ff3600;"
         offset="18%"
         id="stop161" /><stop
         style="stop-color:#ff3c00;"
         offset="19%"
         id="stop163" /><stop
         style="stop-color:#ff4300;"
         offset="20%"
         id="stop165" /><stop
         style="stop-color:#ff4b00;"
         offset="21%"
         id="stop167" /><stop
         style="stop-color:#ff5200;"
         offset="22%"
         id="stop169" /><stop
         style="stop-color:#ff5900;"
         offset="23%"
         id="stop171" /><stop
         style="stop-color:#ff5d00;"
         offset="24%"
         id="stop173" /><stop
         style="stop-color:#ff6400;"
         offset="25%"
         id="stop175" /><stop
         style="stop-color:#ff6b00;"
         offset="26%"
         id="stop177" /><stop
         style="stop-color:#ff7300;"
         offset="27%"
         id="stop179" /><stop
         style="stop-color:#ff8500;"
         offset="29%"
         id="stop181" /><stop
         style="stop-color:#ff9100;"
         offset="30%"
         id="stop183" /><stop
         style="stop-color:#ff9a00;"
         offset="31%"
         id="stop185" /><stop
         style="stop-color:#ffa500;"
         offset="32%"
         id="stop187" /><stop
         style="stop-color:#ffae00;"
         offset="33%"
         id="stop189" /><stop
         style="stop-color:#ffb100;"
         offset="34%"
         id="stop191" /><stop
         style="stop-color:#ffc100;"
         offset="36%"
         id="stop193" /><stop
         style="stop-color:#ffc500;"
         offset="37%"
         id="stop195" /><stop
         style="stop-color:#ffcc00;"
         offset="38%"
         id="stop197" /><stop
         style="stop-color:#ffd300;"
         offset="39%"
         id="stop199" /><stop
         style="stop-color:#ffec00;"
         offset="43%"
         id="stop201" /><stop
         style="stop-color:#fff100;"
         offset="44%"
         id="stop203" /><stop
         style="stop-color:#fff600;"
         offset="45%"
         id="stop205" /><stop
         style="stop-color:#fff900;"
         offset="46%"
         id="stop207" /><stop
         style="stop-color:#fefe00;"
         offset="54%"
         id="stop209" /><stop
         style="stop-color:#f3ff03;"
         offset="55%"
         id="stop211" /><stop
         style="stop-color:#e5ff04;"
         offset="56%"
         id="stop213" /><stop
         style="stop-color:#dbff06;"
         offset="57%"
         id="stop215" /><stop
         style="stop-color:#d3ff08;"
         offset="58%"
         id="stop217" /><stop
         style="stop-color:#ccff09;"
         offset="59%"
         id="stop219" /><stop
         style="stop-color:#c2ff0a;"
         offset="60%"
         id="stop221" /><stop
         style="stop-color:#b2ff0e;"
         offset="61%"
         id="stop223" /><stop
         style="stop-color:#a6ff10;"
         offset="62%"
         id="stop225" /><stop
         style="stop-color:#9dff11;"
         offset="63%"
         id="stop227" /><stop
         style="stop-color:#84ff16;"
         offset="64%"
         id="stop229" /><stop
         style="stop-color:#6bff1b;"
         offset="66%"
         id="stop231" /><stop
         style="stop-color:#65ff1d;"
         offset="67%"
         id="stop233" /><stop
         style="stop-color:#5bfe22;"
         offset="68%"
         id="stop235" /><stop
         style="stop-color:#4dfb2d;"
         offset="69%"
         id="stop237" /><stop
         style="stop-color:#44fa35;"
         offset="70%"
         id="stop239" /><stop
         style="stop-color:#3af93c;"
         offset="71%"
         id="stop241" /><stop
         style="stop-color:#33f843;"
         offset="72%"
         id="stop243" /><stop
         style="stop-color:#1ff454;"
         offset="73%"
         id="stop245" /><stop
         style="stop-color:#1ff454;"
         offset="74%"
         id="stop247" /><stop
         style="stop-color:#19ee5d;"
         offset="75%"
         id="stop249" /><stop
         style="stop-color:#16ea63;"
         offset="76%"
         id="stop251" /><stop
         style="stop-color:#11e56b;"
         offset="77%"
         id="stop253" /><stop
         style="stop-color:#0cde75;"
         offset="78%"
         id="stop255" /><stop
         style="stop-color:#04d583;"
         offset="79%"
         id="stop257" /><stop
         style="stop-color:#01cf8b;"
         offset="80%"
         id="stop259" /><stop
         style="stop-color:#01cb8f;"
         offset="81%"
         id="stop261" /><stop
         style="stop-color:#00bc9d;"
         offset="82%"
         id="stop263" /><stop
         style="stop-color:#00abad;"
         offset="83%"
         id="stop265" /><stop
         style="stop-color:#00a2b5;"
         offset="84%"
         id="stop267" /><stop
         style="stop-color:#0093c2;"
         offset="85%"
         id="stop269" /><stop
         style="stop-color:#008aca;"
         offset="86%"
         id="stop271" /><stop
         style="stop-color:#0075db;"
         offset="87%"
         id="stop273" /><stop
         style="stop-color:#006bdc;"
         offset="88%"
         id="stop275" /><stop
         style="stop-color:#0062de;"
         offset="89%"
         id="stop277" /><stop
         style="stop-color:#0054e1;"
         offset="90%"
         id="stop279" /><stop
         style="stop-color:#0047e3;"
         offset="91%"
         id="stop281" /><stop
         style="stop-color:#003de4;"
         offset="92%"
         id="stop283" /><stop
         style="stop-color:#0035e6;"
         offset="93%"
         id="stop285" /><stop
         style="stop-color:#002be6;"
         offset="94%"
         id="stop287" /><stop
         style="stop-color:#0024e3;"
         offset="95%"
         id="stop289" /><stop
         style="stop-color:#001add;"
         offset="96%"
         id="stop291" /><stop
         style="stop-color:#0013d9;"
         offset="97%"
         id="stop293" /><stop
         style="stop-color:#000ad3;"
         offset="98%"
         id="stop295" /><stop
         style="stop-color:#000ad3;"
         offset="99%"
         id="stop297" /><stop
         style="stop-color:#0001ce;"
         offset="100%"
         id="stop299" /></linearGradient></defs><path
     style="-inkscape-font-specification:'BIZ UDPGothic';fill:#ffffff;stroke-width:0.224931;stroke-linecap:square;paint-order:markers stroke fill"
     d="m 1.5782161,1.0677108 h 0.2224622 v 1.413654 q 0,0.2848407 -0.112402,0.4114366 -0.1405024,0.1582448 -0.4062862,0.1582448 -0.32315555,0 -0.4882459,-0.3434499 L 0.93073407,2.5727951 Q 1.0536737,2.851775 1.274965,2.851775 q 0.1744572,0 0.2505627,-0.120735 0.052688,-0.084397 0.052688,-0.2637414 z m 0.7306127,0 h 0.3325224 l 0.4496077,0.929542 Q 3.1975066,2.2187956 3.258391,2.4075172 h 0.00936 Q 3.3274714,2.22114 3.4363607,1.9972528 L 3.8847976,1.0677108 H 4.2173201 V 3.0123642 H 4.001883 V 1.9468489 q 0,-0.4723902 0.00936,-0.6986218 H 3.9995413 Q 3.9011896,1.5096242 3.7735665,1.7780544 L 3.3450341,2.6853248 H 3.1811146 L 2.7525822,1.7780544 Q 2.6214467,1.5037633 2.5266076,1.2482271 h -0.011709 q 0.0082,0.2285759 0.00936,0.6552509 V 1.946849 3.0123643 H 2.3088288 Z m 2.9283047,-0.00938 H 5.4631082 L 6.232359,3.0123642 H 5.9876506 L 5.7698718,2.4391662 H 4.9303698 L 4.712591,3.0123642 H 4.4678826 Z M 5.7054749,2.2539611 5.5017464,1.7159286 Q 5.3905153,1.4299157 5.3553896,1.2845649 h -0.00936 Q 5.3108972,1.4217104 5.1996662,1.7159286 L 4.9959376,2.2539611 Z M 7.2088509,1.0677108 H 7.9183882 V 1.2376775 H 7.6736798 v 1.60472 H 7.9183882 V 3.0123642 H 7.2088509 V 2.8423975 h 0.2447084 v -1.60472 H 7.2088509 Z M 8.51084,1.5963658 v 0.254364 q 0.1077185,-0.1406621 0.2482209,-0.2133375 0.1299648,-0.067987 0.263442,-0.067987 0.1756281,0 0.3009094,0.086742 0.1896783,0.1324568 0.1896783,0.4606684 V 3.0123642 H 9.2953119 V 2.1437758 q 0,-0.3844764 -0.3009094,-0.3844764 -0.1159146,0 -0.2248039,0.065642 -0.1639195,0.096119 -0.2517335,0.287185 V 3.0123642 H 8.2977446 V 1.5963658 Z m 1.813652,-0.4348803 v 0.4348803 h 0.4379 v 0.1676223 h -0.4379 v 0.8814825 q 0,0.1008078 0.01756,0.1441786 0.03044,0.076192 0.122939,0.076192 0.121769,0 0.244709,-0.084397 l 0.06088,0.1559005 q -0.155724,0.1043244 -0.340718,0.1043244 -0.318472,0 -0.318472,-0.3680658 V 1.7639881 H 9.7777033 V 1.5963658 H 10.111396 V 1.2740152 Z m 0.716562,1.5144619 h 0.336035 v 0.3364168 h -0.336035 z"
     id="text1923-2-5"
     aria-label="JMA Int." /><g
     id="g4"
     transform="translate(0.6853206)"><rect
       style="fill:url(#linearGradient945);fill-opacity:1;stroke:#ffffff;stroke-width:0.529167;stroke-linecap:square;stroke-linejoin:round;stroke-dasharray:none;stroke-opacity:1;paint-order:stroke fill markers"
       id="rect355"
       width="0.79374999"
       height="74.083336"
       x="1.7645835"
       y="5.622396"
       rx="0.39687499"
       ry="0.39687499" /><g
       id="g2"
       transform="translate(0.8053465,1.0583333)"><rect
         style="fill:#ffffff;fill-opacity:1;stroke:none;stroke-width:0.327718;stroke-linecap:square;stroke-dasharray:none;stroke-opacity:1;paint-order:stroke fill markers"
         id="rect954"
         width="1.5875"
         height="0.26458332"
         x="1.8520833"
         y="4.7624998"
         rx="0.13229166"
         ry="0.26458332" /><rect
         style="fill:#ffffff;fill-opacity:1;stroke:none;stroke-width:0.299164;stroke-linecap:square;stroke-dasharray:none;stroke-opacity:1;paint-order:stroke fill markers"
         id="rect954-3-1"
         width="1.3229166"
         height="0.26458332"
         x="1.8520833"
         y="11.906252"
         rx="0.13229166"
         ry="0.26458332" /><rect
         style="fill:#ffffff;fill-opacity:1;stroke:none;stroke-width:0.299164;stroke-linecap:square;stroke-dasharray:none;stroke-opacity:1;paint-order:stroke fill markers"
         id="rect954-3-7"
         width="1.3229166"
         height="0.26458332"
         x="1.8520833"
         y="19.314583"
         rx="0.13229166"
         ry="0.26458332" /><rect
         style="fill:#ffffff;fill-opacity:1;stroke:none;stroke-width:0.299164;stroke-linecap:square;stroke-dasharray:none;stroke-opacity:1;paint-order:stroke fill markers"
         id="rect954-3-4-7"
         width="1.3229166"
         height="0.26458332"
         x="1.8520833"
         y="26.72287"
         rx="0.13229166"
         ry="0.26458332" /><rect
         style="fill:#ffffff;fill-opacity:1;stroke:none;stroke-width:0.299164;stroke-linecap:square;stroke-dasharray:none;stroke-opacity:1;paint-order:stroke fill markers"
         id="rect954-3-4-5"
         width="1.3229166"
         height="0.26458332"
         x="1.8520833"
         y="34.131248"
         rx="0.13229166"
         ry="0.26458332" /><rect
         style="fill:#ffffff;fill-opacity:1;stroke:none;stroke-width:0.299164;stroke-linecap:square;stroke-dasharray:none;stroke-opacity:1;paint-order:stroke fill markers"
         id="rect954-3-4-5-3"
         width="1.3229166"
         height="0.26458332"
         x="1.8520833"
         y="48.947918"
         rx="0.13229166"
         ry="0.26458332" /><rect
         style="fill:#ffffff;fill-opacity:1;stroke:none;stroke-width:0.299164;stroke-linecap:square;stroke-dasharray:none;stroke-opacity:1;paint-order:stroke fill markers"
         id="rect954-3-4-5-3-6"
         width="1.3229166"
         height="0.26458332"
         x="1.8520833"
         y="56.356251"
         rx="0.13229166"
         ry="0.26458332" /><rect
         style="fill:#ffffff;fill-opacity:1;stroke:none;stroke-width:0.299164;stroke-linecap:square;stroke-dasharray:none;stroke-opacity:1;paint-order:stroke fill markers"
         id="rect954-3-4-5-3-60"
         width="1.3229166"
         height="0.26458332"
         x="1.8520833"
         y="63.764584"
         rx="0.13229166"
         ry="0.26458332" /><rect
         style="fill:#ffffff;fill-opacity:1;stroke:none;stroke-width:0.299164;stroke-linecap:square;stroke-dasharray:none;stroke-opacity:1;paint-order:stroke fill markers"
         id="rect954-3-4-5-3-60-3-2"
         width="1.3229166"
         height="0.26458332"
         x="1.8520833"
         y="71.172874"
         rx="0.13229166"
         ry="0.26458332" /><rect
         style="fill:#ffffff;fill-opacity:1;stroke:none;stroke-width:0.299164;stroke-linecap:square;stroke-dasharray:none;stroke-opacity:1;paint-order:stroke fill markers"
         id="rect954-3-4-5-3-60-3-2-7"
         width="1.3229166"
         height="0.26458332"
         x="1.8520833"
         y="78.316666"
         rx="0.13229166"
         ry="0.26458332" /><rect
         style="fill:#ffffff;fill-opacity:1;stroke:none;stroke-width:0.299164;stroke-linecap:square;stroke-dasharray:none;stroke-opacity:1;paint-order:stroke fill markers"
         id="rect954-3-4-9"
         width="1.3229166"
         height="0.26458332"
         x="1.8520833"
         y="41.539585"
         rx="0.13229166"
         ry="0.26458332" /></g><g
       id="g3"
       transform="translate(0.8053465,1.0583333)"><rect
         style="fill:#000000;fill-opacity:0.365979;stroke:none;stroke-width:0.163531;stroke-linecap:square;stroke-dasharray:none;stroke-opacity:1;paint-order:stroke fill markers"
         id="rect954-7"
         width="0.79374999"
         height="0.13229166"
         x="0.95923686"
         y="4.8286457"
         rx="0.026458332"
         ry="6.8755153e-06" /><rect
         style="fill:#000000;fill-opacity:0.365979;stroke:none;stroke-width:0.163532;stroke-linecap:square;stroke-dasharray:none;stroke-opacity:1;paint-order:stroke fill markers"
         id="rect954-3-1-8"
         width="0.79374999"
         height="0.13229166"
         x="0.95923686"
         y="11.972396"
         rx="0.026458332"
         ry="6.8755153e-06" /><rect
         style="fill:#000000;fill-opacity:0.365979;stroke:none;stroke-width:0.163532;stroke-linecap:square;stroke-dasharray:none;stroke-opacity:1;paint-order:stroke fill markers"
         id="rect954-3-7-5"
         width="0.79374999"
         height="0.13229166"
         x="0.95923686"
         y="19.38073"
         rx="0.026458332"
         ry="6.8755153e-06" /><rect
         style="fill:#000000;fill-opacity:0.365979;stroke:none;stroke-width:0.163532;stroke-linecap:square;stroke-dasharray:none;stroke-opacity:1;paint-order:stroke fill markers"
         id="rect954-3-4-7-4"
         width="0.79374999"
         height="0.13229166"
         x="0.95923686"
         y="26.789015"
         rx="0.026458332"
         ry="6.8755153e-06" /><rect
         style="fill:#000000;fill-opacity:0.365979;stroke:none;stroke-width:0.163532;stroke-linecap:square;stroke-dasharray:none;stroke-opacity:1;paint-order:stroke fill markers"
         id="rect954-3-4-5-0"
         width="0.79374999"
         height="0.13229166"
         x="0.95923686"
         y="34.197395"
         rx="0.026458332"
         ry="6.8755153e-06" /><rect
         style="fill:#000000;fill-opacity:0.365979;stroke:none;stroke-width:0.163532;stroke-linecap:square;stroke-dasharray:none;stroke-opacity:1;paint-order:stroke fill markers"
         id="rect954-3-4-5-3-7"
         width="0.79374999"
         height="0.13229166"
         x="0.95923686"
         y="49.014065"
         rx="0.026458332"
         ry="6.8755153e-06" /><rect
         style="fill:#000000;fill-opacity:0.365979;stroke:none;stroke-width:0.163532;stroke-linecap:square;stroke-dasharray:none;stroke-opacity:1;paint-order:stroke fill markers"
         id="rect954-3-4-5-3-6-6"
         width="0.79374999"
         height="0.13229166"
         x="0.95923686"
         y="56.422398"
         rx="0.026458332"
         ry="6.8755153e-06" /><rect
         style="fill:#000000;fill-opacity:0.365979;stroke:none;stroke-width:0.163532;stroke-linecap:square;stroke-dasharray:none;stroke-opacity:1;paint-order:stroke fill markers"
         id="rect954-3-4-5-3-60-6"
         width="0.79374999"
         height="0.13229166"
         x="0.95923686"
         y="63.83073"
         rx="0.026458332"
         ry="6.8755153e-06" /><rect
         style="fill:#000000;fill-opacity:0.365979;stroke:none;stroke-width:0.163532;stroke-linecap:square;stroke-dasharray:none;stroke-opacity:1;paint-order:stroke fill markers"
         id="rect954-3-4-5-3-60-3-2-3"
         width="0.79374999"
         height="0.13229166"
         x="0.95923686"
         y="71.239021"
         rx="0.026458332"
         ry="6.8755153e-06" /><rect
         style="fill:#000000;fill-opacity:0.365979;stroke:none;stroke-width:0.163532;stroke-linecap:square;stroke-dasharray:none;stroke-opacity:1;paint-order:stroke fill markers"
         id="rect954-3-4-5-3-60-3-2-7-4"
         width="0.79374999"
         height="0.13229166"
         x="0.95923686"
         y="78.382812"
         rx="0.026458332"
         ry="6.8755153e-06" /><rect
         style="fill:#000000;fill-opacity:0.365979;stroke:none;stroke-width:0.163532;stroke-linecap:square;stroke-dasharray:none;stroke-opacity:1;paint-order:stroke fill markers"
         id="rect954-3-4-9-1"
         width="0.79374999"
         height="0.13229166"
         x="0.95923686"
         y="41.605728"
         rx="0.026458332"
         ry="6.8755153e-06" /></g><g
       id="g1"
       transform="translate(2.5584169,1.0583333)"><path
         style="-inkscape-font-specification:'BIZ UDPGothic';fill:#ffffff;stroke-width:0.259986;stroke-linecap:square;paint-order:markers stroke fill"
         d="M 3.9129678,3.7715739 H 5.527043 V 3.9746873 Q 5.2684118,4.4310156 5.0463411,5.0417101 4.8689553,5.5291826 4.7701067,6.018009 H 4.503351 Q 4.6076159,5.4831435 4.8445817,4.8954684 5.0883178,4.2901904 5.2494545,4.0017692 H 4.1539959 V 4.4987201 H 3.9129678 Z"
         id="text1923-2"
         aria-label="7" /><path
         style="-inkscape-font-specification:'BIZ UDPGothic';fill:#ffffff;stroke-width:0.259986;stroke-linecap:square;paint-order:markers stroke fill"
         d="m 4.1898792,12.079844 q 0.1083276,-0.182802 0.3033161,-0.26811 0.1435336,-0.06229 0.2924834,-0.06229 0.2748803,0 0.4915347,0.190927 0.2274871,0.20176 0.2274871,0.517263 0,0.31144 -0.196343,0.537573 -0.2071758,0.235612 -0.5551769,0.235612 -0.4021647,0 -0.6269436,-0.299254 -0.1096812,-0.144888 -0.1570745,-0.296546 -0.054163,-0.174677 -0.054163,-0.410289 0,-0.2153 0.08937,-0.444141 0.2654017,-0.68517 1.0643147,-0.934323 l 0.1002024,0.193635 q -0.475286,0.174679 -0.7000649,0.433311 -0.2450902,0.283004 -0.2897752,0.606632 z m 0.5470523,-0.121868 q -0.2180084,0 -0.3818533,0.171969 -0.1381173,0.146242 -0.1381173,0.329044 0,0.167907 0.1015572,0.318211 0.1584285,0.234258 0.422476,0.234258 0.2288412,0 0.3683125,-0.159783 0.1340549,-0.153012 0.1340549,-0.376437 0,-0.243736 -0.1394713,-0.376437 Q 4.956294,11.957976 4.7369315,11.957976 Z"
         id="text1923-0"
         aria-label="6" /><path
         style="-inkscape-font-specification:'BIZ UDPGothic';fill:#ffffff;stroke-width:0.259986;stroke-linecap:square;paint-order:markers stroke fill"
         d="m 4.2371591,18.325801 h 1.2620118 v 0.222071 H 4.4565217 l -0.08937,0.782664 h 0.010836 q 0.209884,-0.181448 0.5145541,-0.181448 0.2911294,0 0.4928887,0.167907 0.2383199,0.199052 0.2383199,0.548406 0,0.22478 -0.1123896,0.402165 -0.1327008,0.212592 -0.3845616,0.299253 -0.1394712,0.04739 -0.3073783,0.04739 -0.4644529,0 -0.7515199,-0.264049 l 0.1381171,-0.174678 q 0.1123896,0.1002 0.2654016,0.154367 0.1746776,0.06229 0.3480012,0.06229 0.2410279,0 0.3953942,-0.162491 0.1394712,-0.147596 0.1394712,-0.36425 0,-0.218009 -0.1286385,-0.354772 -0.1421794,-0.153012 -0.3913319,-0.153012 -0.1787399,0 -0.3344603,0.08666 -0.1042644,0.05822 -0.1624908,0.143534 l -0.2301953,-0.03385 z"
         id="text1923-0-3-5"
         aria-label="5" /><path
         style="-inkscape-font-specification:'BIZ UDPGothic';fill:#ffffff;stroke-width:0.259986;stroke-linecap:square;paint-order:markers stroke fill"
         d="m 4.9114962,25.71784 h 0.3046703 v 1.500331 h 0.4292464 v 0.213947 H 5.2161665 v 0.545697 H 4.9724303 V 27.432118 H 3.8295785 v -0.211239 z m 0.060934,1.500331 v -0.798913 q 0,-0.230195 0.013541,-0.479348 h -0.010836 q -0.11916,0.235612 -0.2031135,0.352064 L 4.11258,27.218171 Z"
         id="text1923-0-0"
         aria-label="4" /><path
         style="-inkscape-font-specification:'BIZ UDPGothic';fill:#ffffff;stroke-width:0.259986;stroke-linecap:square;paint-order:markers stroke fill"
         d="m 4.3444712,34.114254 h 0.1746776 q 0.2586312,0 0.4157056,-0.0826 0.035207,-0.01896 0.06635,-0.04469 0.1367631,-0.115092 0.1367631,-0.285714 0,-0.178739 -0.1435335,-0.280296 -0.1313468,-0.09072 -0.3371683,-0.09072 -0.3087326,0 -0.5673638,0.243735 L 3.9314738,33.40471 q 0.1083276,-0.105623 0.2464443,-0.173323 0.2329036,-0.115092 0.4915347,-0.115092 0.2654016,0 0.4590365,0.106968 0.2843589,0.157075 0.2843589,0.456329 0,0.227486 -0.1665531,0.3805 -0.1286385,0.120513 -0.3710206,0.151657 v 0.0108 q 0.287067,0.02978 0.4454956,0.169261 0.1719693,0.153012 0.1719693,0.408935 0,0.322273 -0.2545688,0.496951 Q 5.0188081,35.448 4.6613283,35.448 q -0.4955969,0 -0.8043294,-0.316858 l 0.1611367,-0.170615 q 0.088015,0.09208 0.1963431,0.150304 0.2098838,0.115092 0.4468496,0.115092 0.2667557,0 0.4184137,-0.121868 0.135409,-0.10968 0.135409,-0.307378 0,-0.471223 -0.7014185,-0.471223 H 4.3444712 Z"
         id="text1923-0-0-9-2"
         aria-label="3" /><path
         style="-inkscape-font-specification:'BIZ UDPGothic';fill:#ffffff;stroke-width:0.259986;stroke-linecap:square;paint-order:markers stroke fill"
         d="m 3.9036022,42.781102 v -0.224779 q 0.1272844,-0.448204 0.693294,-0.831411 L 4.674079,41.6721 q 0.2505066,-0.169261 0.3344601,-0.253215 0.1516581,-0.14895 0.1516581,-0.324982 0,-0.165198 -0.1245762,-0.269463 -0.1327008,-0.112392 -0.3480011,-0.112392 -0.3317521,0 -0.5876751,0.291129 L 3.9252676,40.851524 q 0.2870671,-0.358834 0.7637067,-0.358834 0.2640475,0 0.4549741,0.112392 0.2938376,0.17197 0.2938376,0.49966 0,0.232903 -0.1855103,0.414351 -0.08937,0.08666 -0.3628961,0.276234 l -0.046039,0.0325 -0.09614,0.06635 Q 4.235354,42.24488 4.1676496,42.545488 H 5.4675758 V 42.7811 Z"
         id="text1923-0-0-1"
         aria-label="2" /><path
         style="-inkscape-font-specification:'BIZ UDPGothic';fill:#ffffff;stroke-width:0.259986;stroke-linecap:square;paint-order:markers stroke fill"
         d="m 4.5753436,50.223738 v -2.005407 q -0.226133,0.09343 -0.5429901,0.163845 L 3.9768355,48.183125 Q 4.4236852,48.072089 4.6444018,47.93668 h 0.1800939 v 2.287058 z"
         id="text1923-0-0-5-3"
         aria-label="1" /><path
         style="-inkscape-font-specification:'BIZ UDPGothic';fill:#ffffff;stroke-width:0.259986;stroke-linecap:square;paint-order:markers stroke fill"
         d="m 4.7383985,55.318607 q 0.391332,0 0.6147568,0.329044 0.2098839,0.308732 0.2098839,0.836827 0,0.487472 -0.1773858,0.790789 -0.2234247,0.383207 -0.649963,0.383207 -0.4008107,0 -0.6242355,-0.343938 -0.2017593,-0.310087 -0.2017593,-0.830058 0,-0.544344 0.2234247,-0.857139 0.2220708,-0.308732 0.6052782,-0.308732 z m -0.00407,0.216654 q -0.2667557,0 -0.4143515,0.280297 -0.1327009,0.250506 -0.1327009,0.671628 0,0.388624 0.1137432,0.632361 0.1489499,0.316856 0.436017,0.316856 0.2613394,0 0.4089352,-0.269463 0.1394712,-0.251861 0.1394712,-0.678399 0,-0.449558 -0.150304,-0.704127 Q 4.988899,55.535261 4.7343305,55.535261 Z"
         id="text1923-0-0-6"
         aria-label="0" /><path
         style="-inkscape-font-specification:'BIZ UDPGothic';fill:#ffffff;stroke-width:0.259986;stroke-linecap:square;paint-order:markers stroke fill"
         d="m 3.8416525,63.875098 h 0.9261974 v 0.20853 H 3.8416525 Z m 1.9769712,1.145561 v -2.005407 q -0.2261331,0.09343 -0.5429901,0.163845 L 5.220116,62.980046 Q 5.6669656,62.86901 5.8876822,62.733601 h 0.180094 v 2.287058 z"
         id="text1923-0-0-88-1"
         aria-label="-1" /><path
         style="-inkscape-font-specification:'BIZ UDPGothic';fill:#ffffff;stroke-width:0.259986;stroke-linecap:square;paint-order:markers stroke fill"
         d="m 3.7803799,71.283498 h 0.9261975 v 0.20853 H 3.7803799 Z m 1.3974208,1.145561 V 72.20428 q 0.1272845,-0.448204 0.693294,-0.831412 l 0.077183,-0.05281 q 0.2505066,-0.169261 0.3344602,-0.253214 0.151658,-0.14895 0.151658,-0.324982 0,-0.165199 -0.1245762,-0.269463 -0.1327008,-0.112392 -0.3480011,-0.112392 -0.3317521,0 -0.587675,0.291129 L 5.1994661,70.499481 q 0.2870671,-0.358834 0.7637068,-0.358834 0.2640475,0 0.4549741,0.112392 0.2938375,0.17197 0.2938375,0.499658 0,0.232905 -0.1855103,0.414352 -0.08937,0.08666 -0.3628961,0.276235 l -0.046039,0.0325 -0.09614,0.06635 q -0.5118459,0.35071 -0.5795504,0.651318 H 6.741775 v 0.235612 z"
         id="text1923-0-0-7-7"
         aria-label="-2" /><path
         style="-inkscape-font-specification:'BIZ UDPGothic';fill:#ffffff;stroke-width:0.259986;stroke-linecap:square;paint-order:markers stroke fill"
         d="m 3.7813955,78.423456 h 0.9261974 v 0.20853 H 3.7813955 Z M 5.582335,78.279922 h 0.1746776 q 0.2586312,0 0.4157056,-0.0826 0.035207,-0.01896 0.06635,-0.04469 0.1367631,-0.115104 0.1367631,-0.285713 0,-0.17874 -0.1435335,-0.280297 -0.1313468,-0.09072 -0.3371685,-0.09072 -0.3087324,0 -0.5673636,0.243736 l -0.1584281,-0.16926 q 0.1083276,-0.105612 0.2464443,-0.173323 0.2329035,-0.115092 0.4915347,-0.115092 0.2654016,0 0.4590365,0.106968 0.2843588,0.157074 0.2843588,0.456328 0,0.227487 -0.1665531,0.380499 -0.1286385,0.120514 -0.3710205,0.151659 v 0.0108 q 0.287067,0.02978 0.4454955,0.169261 0.1719694,0.153012 0.1719694,0.408935 0,0.322274 -0.2545688,0.496951 -0.2193627,0.150305 -0.5768423,0.150305 -0.4955969,0 -0.8043294,-0.316858 l 0.1611367,-0.170582 q 0.088015,0.09208 0.196343,0.150303 0.2098839,0.115104 0.4468497,0.115104 0.2667557,0 0.4184137,-0.121868 0.135409,-0.10968 0.135409,-0.307379 0,-0.471223 -0.7014185,-0.471223 H 5.582335 Z"
         id="text1923-0-0-97-8"
         aria-label="-3" /></g></g></svg>
