<?xml version="1.0" encoding="UTF-8" standalone="no"?>
<!-- Created with Inkscape (http://www.inkscape.org/) -->

<svg
   width="49.999935mm"
   height="44.270054mm"
   viewBox="0 0 49.999935 44.270054"
   version="1.1"
   id="svg1"
   xmlns:inkscape="http://www.inkscape.org/namespaces/inkscape"
   xmlns:sodipodi="http://sodipodi.sourceforge.net/DTD/sodipodi-0.dtd"
   xmlns="http://www.w3.org/2000/svg"
   xmlns:svg="http://www.w3.org/2000/svg">
  <sodipodi:namedview
     id="namedview1"
     pagecolor="#505050"
     bordercolor="#eeeeee"
     borderopacity="1"
     inkscape:showpageshadow="0"
     inkscape:pageopacity="0"
     inkscape:pagecheckerboard="0"
     inkscape:deskcolor="#505050"
     inkscape:document-units="mm" />
  <defs
     id="defs1" />
  <g
     inkscape:label="Layer 1"
     inkscape:groupmode="layer"
     id="layer1"
     transform="translate(-120.65,-226.21876)">
    <path
       id="path272"
       style="fill:#ffffff;fill-opacity:1;fill-rule:nonzero;stroke:none;stroke-width:0.0352778"
       d="m 126.14699,260.31014 v 2.63278 h 4.9597 v 2.31105 h -4.9597 v 4.99036 h -2.58692 V 257.937 h 8.00594 v 2.37314 h -5.41902" />
    <path
       id="path274"
       style="fill:#ffffff;fill-opacity:1;fill-rule:nonzero;stroke:none;stroke-width:0.0352778"
       d="m 138.48927,260.06496 c -2.15865,0 -3.78107,1.74519 -3.78107,4.07211 0,2.21933 1.66828,3.97969 3.78107,3.97969 2.11208,0 3.76555,-1.76036 3.76555,-4.0259 0,-2.26554 -1.65347,-4.0259 -3.76555,-4.0259 z m -0.0159,10.42384 c -3.67348,0 -6.35212,-2.72411 -6.35212,-6.45933 0,-3.61244 2.73968,-6.33694 6.35212,-6.33694 3.65901,0 6.36799,2.7245 6.36799,6.39833 0,3.67383 -2.70898,6.39794 -6.36799,6.39794" />
    <path
       id="path276"
       style="fill:#ffffff;fill-opacity:1;fill-rule:nonzero;stroke:none;stroke-width:0.0352778"
       d="m 154.06829,270.24433 -5.38833,-8.3735 v 8.3735 h -2.58692 V 257.937 h 2.86244 l 5.38833,8.37318 V 257.937 h 2.58657 v 12.30733 h -2.86209" />
    <path
       id="path278"
       style="fill:#ffffff;fill-opacity:1;fill-rule:nonzero;stroke:none;stroke-width:0.0352778"
       d="m 164.02015,260.31014 v 9.93419 h -2.58727 v -9.93419 h -3.71934 V 257.937 h 10.02595 v 2.37314 h -3.71934" />
    <path
       id="path280"
       style="fill:#ffffff;fill-opacity:1;fill-rule:nonzero;stroke:none;stroke-width:0.0352778"
       d="m 159.11442,246.12388 -0.0212,0.008 c -0.89041,0.37112 -2.15547,0.49177 -3.69111,0.35278 -1.03434,-0.0938 -1.86443,-0.2854 -2.40489,-0.43991 v -11.22351 h 1.69298 c 2.42429,0 3.2886,0.15028 4.20265,0.46355 2.2867,0.79657 2.62784,3.77401 2.62784,5.47793 0,2.80564 -0.87736,4.75968 -2.4063,5.36116 z m 0.52317,-12.99351 c -1.29928,-0.4452 -2.50119,-0.58843 -4.94735,-0.58843 h -3.97228 v 15.07631 l 0.69462,0.29492 c 0.0614,0.0265 1.52082,0.63677 3.78354,0.84138 0.48048,0.0441 0.94721,0.0663 1.38818,0.0663 1.31092,0 2.44616,-0.19579 3.37503,-0.58032 2.44087,-0.96661 3.84034,-3.69111 3.84034,-7.47783 0,-3.98604 -1.47638,-6.69607 -4.16208,-7.63235" />
    <path
       id="path282"
       style="fill:#ffffff;fill-opacity:1;fill-rule:nonzero;stroke:none;stroke-width:0.0352778"
       d="m 161.59128,252.04949 c -1.50883,0.58209 -2.86738,0.82409 -5.00768,0.89077 -3.14008,-0.002 -4.81754,-0.56692 -6.44032,-1.11407 -1.16981,-0.39335 -2.37207,-0.79869 -3.99626,-0.93134 v -22.3968 h 9.30063 c 2.73862,0 4.38397,0.24588 6.07977,0.91228 4.34905,1.66829 6.84319,5.80567 6.84319,11.35239 0,5.49698 -2.47192,9.61178 -6.77933,11.28677 z m -21.71912,-0.2233 c -1.6256,0.54786 -3.30659,1.11407 -6.45795,1.11407 -4.23157,0 -7.53392,-1.50248 -9.05263,-4.11057 -1.03047,-1.81892 -1.43228,-3.68335 -1.43228,-6.65057 v -13.68107 h 4.57094 v 13.45106 c 0,1.60338 0.10513,2.58798 0.37536,3.51614 0.64241,2.18193 2.70051,3.48509 5.50651,3.48509 2.78377,0 4.85245,-1.2954 5.53331,-3.46569 l 0.007,-0.0222 c 0.27023,-0.92534 0.37465,-1.90994 0.37465,-3.51332 v -13.45106 h 4.5713 v 22.3968 c -1.62419,0.13265 -2.8261,0.53799 -3.99591,0.93134 z m 22.48006,-24.54064 c -1.95474,-0.76764 -3.89008,-1.0668 -6.90457,-1.0668 h -18.42982 v 15.73036 c 0,1.36137 -0.0787,2.16641 -0.2801,2.8635 -0.51506,1.61713 -2.32234,1.85914 -3.35562,1.85914 -1.76425,0 -2.97427,-0.67451 -3.31894,-1.8475 -0.17533,-0.60078 -0.28363,-1.29117 -0.28363,-2.87514 V 226.21875 H 120.65 v 15.96037 c 0,3.35492 0.50095,5.60741 1.73567,7.78616 1.94451,3.33904 5.96406,5.25357 11.02854,5.25357 3.52495,0 5.46946,-0.6544 7.18538,-1.23261 1.36807,-0.46002 2.54952,-0.8583 4.40795,-0.8583 1.85879,0 3.04024,0.39828 4.40832,0.8583 1.71555,0.57821 3.66077,1.23261 7.18502,1.23261 h 0.0173 l 0.018,-7.1e-4 c 2.40171,-0.073 4.02096,-0.36512 5.7785,-1.04387 5.15691,-2.00483 8.23525,-7.01886 8.23525,-13.41155 0,-6.54226 -3.02754,-11.45575 -8.29769,-13.47717" />
  </g>
</svg>
